<svg width="442" height="470" viewBox="0 0 442 470" fill="none" xmlns="http://www.w3.org/2000/svg">
<path fill-rule="evenodd" clip-rule="evenodd" d="M231.148 2.43033C224.742 -0.810111 217.202 -0.810111 210.794 2.43033C174.68 20.688 52.7173 82.3465 13.0505 102.399C5.34105 106.297 0.471191 114.264 0.471191 122.979C0.471191 167.958 0.471191 302.042 0.471191 347.021C0.471191 355.736 5.34105 363.703 13.0505 367.601C52.7173 387.654 174.68 449.313 210.794 467.571C217.202 470.81 224.742 470.81 231.148 467.571C267.262 449.313 389.226 387.654 428.893 367.601C436.601 363.703 441.471 355.736 441.471 347.021C441.471 302.042 441.471 167.958 441.471 122.979C441.471 114.264 436.601 106.297 428.893 102.399C389.226 82.3465 267.262 20.688 231.148 2.43033Z" fill="#555753"/>
<path d="M217.079 22.4283L217.079 22.4279C219.532 21.1907 222.411 21.1907 224.862 22.4279L224.864 22.4287L416.05 118.852C416.05 118.852 416.05 118.852 416.051 118.852C417.54 119.604 418.766 120.754 419.623 122.154C420.487 123.564 420.971 125.216 420.971 126.951V343.049C420.971 344.784 420.487 346.436 419.623 347.846C418.765 349.246 417.54 350.396 416.051 351.147C416.051 351.147 416.051 351.147 416.051 351.147L224.863 447.572L224.863 447.573C222.412 448.809 219.531 448.809 217.078 447.572C217.078 447.572 217.078 447.572 217.078 447.572L25.8919 351.147C24.402 350.396 23.177 349.246 22.3193 347.846C21.4553 346.436 20.9712 344.784 20.9712 343.049V126.951C20.9712 125.216 21.4552 123.564 22.3192 122.154C23.177 120.754 24.4023 119.604 25.8922 118.852L217.079 22.4283Z" fill="#2E3436" stroke="#888A85" stroke-width="13"/>
</svg>
