<svg width="17" height="16" viewBox="0 0 17 16" fill="none" xmlns="http://www.w3.org/2000/svg">
<path d="M0.673549 15.4179C0.682065 15.5806 0.853239 15.7432 1.01589 15.7432H13.2557C13.4184 15.7432 13.5725 15.5806 13.564 15.4179L13.1981 4.78013C13.1896 4.61748 13.0184 4.45482 12.8558 4.45482H7.6707C7.48118 4.45482 7.18837 4.33151 7.12306 4.02244L6.88418 2.89209C6.82344 2.60465 6.53949 2.48657 6.37684 2.48657H0.602564C0.439905 2.48657 0.285767 2.64923 0.294283 2.81188L0.673549 15.4179Z" fill="white" stroke="url(#paint0_linear)" stroke-width="0.390712" stroke-linecap="round" stroke-linejoin="round"/>
<path fill-rule="evenodd" clip-rule="evenodd" d="M10.1318 0.0485402C10.0328 -0.00153161 9.91633 -0.00153161 9.81732 0.0485402C9.25928 0.330661 7.3747 1.28342 6.76176 1.59327C6.64263 1.6535 6.56738 1.77661 6.56738 1.91127C6.56738 2.60629 6.56738 4.67819 6.56738 5.3732C6.56738 5.50787 6.64263 5.63098 6.76176 5.69121C7.3747 6.00108 9.25928 6.95384 9.81732 7.23595C9.91633 7.286 10.0328 7.286 10.1318 7.23595C10.6899 6.95384 12.5745 6.00108 13.1874 5.69121C13.3065 5.63098 13.3818 5.50787 13.3818 5.3732C13.3818 4.67819 13.3818 2.60629 13.3818 1.91127C13.3818 1.77661 13.3065 1.6535 13.1874 1.59327C12.5745 1.28342 10.6899 0.330661 10.1318 0.0485402Z" fill="#555753"/>
<path fill-rule="evenodd" clip-rule="evenodd" d="M9.86967 0.268024L6.91542 1.75799C6.87526 1.77825 6.84253 1.80912 6.81981 1.8462C6.79693 1.88355 6.78418 1.9272 6.78418 1.9728V5.31197C6.78418 5.35758 6.79693 5.40123 6.81981 5.43858C6.84253 5.47566 6.87526 5.50653 6.91542 5.52679L9.86966 7.01677C9.93601 7.05022 10.0141 7.05023 10.0804 7.01677L13.0347 5.52679C13.0748 5.50653 13.1076 5.47566 13.1303 5.43858C13.1532 5.40123 13.1659 5.35758 13.1659 5.31197V1.9728C13.1659 1.9272 13.1532 1.88355 13.1303 1.8462C13.1076 1.80912 13.0748 1.77824 13.0347 1.75798L10.0804 0.26803C10.0141 0.234548 9.93601 0.234554 9.86967 0.268024Z" fill="#2E3436"/>
<path fill-rule="evenodd" clip-rule="evenodd" d="M9.96015 0.44737L7.00589 1.93734C7.00589 1.93734 7.0059 1.93734 7.00589 1.93734C7.00002 1.94031 6.99487 1.94497 6.99109 1.95115C6.98727 1.95738 6.98506 1.96479 6.98506 1.9728V5.31197C6.98506 5.31999 6.98727 5.3274 6.99109 5.33363C6.99488 5.33981 7.00001 5.34447 7.00588 5.34743L9.96011 6.8374C9.96011 6.83741 9.9601 6.8374 9.96011 6.8374C9.96958 6.84217 9.98053 6.84216 9.98995 6.83742L12.9442 5.34744C12.9442 5.34743 12.9442 5.34744 12.9442 5.34744C12.9501 5.34448 12.9552 5.33981 12.959 5.33364C12.9628 5.3274 12.965 5.31999 12.965 5.31197V1.9728C12.965 1.96479 12.9628 1.95738 12.959 1.95115C12.9552 1.94497 12.9501 1.9403 12.9442 1.93733L9.98992 0.447365C9.9805 0.442611 9.9696 0.442605 9.96015 0.44737ZM13.0347 1.75798C13.0748 1.77824 13.1076 1.80912 13.1303 1.8462C13.1532 1.88355 13.1659 1.9272 13.1659 1.9728V5.31197C13.1659 5.35758 13.1532 5.40123 13.1303 5.43858C13.1076 5.47566 13.0748 5.50653 13.0347 5.52679L10.0804 7.01677C10.0141 7.05023 9.93601 7.05022 9.86966 7.01677L6.91542 5.52679C6.87526 5.50653 6.84253 5.47566 6.81981 5.43858C6.79693 5.40123 6.78418 5.35758 6.78418 5.31197V1.9728C6.78418 1.9272 6.79693 1.88355 6.81981 1.8462C6.84253 1.80912 6.87526 1.77825 6.91542 1.75799L9.86967 0.268024C9.93601 0.234554 10.0141 0.234548 10.0804 0.26803L13.0347 1.75798Z" fill="#888A85"/>
<path d="M9.77051 1.71819C9.77051 1.63535 9.80343 1.57236 9.86202 1.54307C9.92062 1.51377 10.0001 1.5206 10.083 1.56203C10.5269 1.78391 11.4289 2.23514 11.8728 2.45701C11.9557 2.49845 12.0352 2.57106 12.0938 2.65894C12.1524 2.74681 12.1853 2.84272 12.1853 2.92556V4.55846C12.1853 4.64131 12.1524 4.70431 12.0938 4.7336C12.0352 4.76289 11.9557 4.75607 11.8728 4.71465C11.4289 4.49276 10.5269 4.04154 10.083 3.81965C10.0001 3.77823 9.92062 3.7056 9.86202 3.61773C9.80343 3.52986 9.77051 3.43395 9.77051 3.35111V1.71819Z" fill="#729FCF"/>
<path d="M8.76367 2.22136C8.76367 2.13852 8.79659 2.07553 8.85519 2.04624C8.91378 2.01695 8.99326 2.02377 9.07612 2.0652C9.52002 2.28708 10.4221 2.73831 10.866 2.96019C10.9489 3.00162 11.0283 3.07424 11.0869 3.16211C11.1455 3.24998 11.1784 3.3459 11.1784 3.42874V5.06164C11.1784 5.14448 11.1455 5.20748 11.0869 5.23677C11.0283 5.26606 10.9489 5.25925 10.866 5.21782C10.4221 4.99593 9.52002 4.54471 9.07612 4.32283C8.99326 4.28141 8.91378 4.20877 8.85519 4.1209C8.79659 4.03303 8.76367 3.93713 8.76367 3.85428V2.22136Z" fill="#8AE234"/>
<path d="M7.75781 2.72429C7.75781 2.64145 7.79073 2.57846 7.84933 2.54917C7.90792 2.51988 7.9874 2.5267 8.07026 2.56813C8.51416 2.79001 9.41621 3.24124 9.86011 3.46312C9.943 3.50455 10.0225 3.57717 10.0811 3.66504C10.1397 3.75291 10.1726 3.84883 10.1726 3.93167V5.56457C10.1726 5.64741 10.1397 5.71041 10.0811 5.7397C10.0225 5.76899 9.943 5.76217 9.86011 5.72075C9.41621 5.49886 8.51416 5.04764 8.07026 4.82576C7.9874 4.78434 7.90792 4.7117 7.84933 4.62383C7.79073 4.53596 7.75781 4.44006 7.75781 4.35721V2.72429Z" fill="#EF2929"/>
<path d="M14.4503 15.7396C14.8972 15.7223 15.2173 15.3112 15.2501 14.8327C15.5594 10.3205 15.8984 6.53714 15.8984 6.53714C15.9266 6.44045 15.8328 6.34375 15.7108 6.34375H2.28161L1.55866 14.8874C1.51391 15.2711 1.37659 15.5925 0.953125 15.7406L14.4503 15.7395V15.7396Z" fill="url(#paint1_linear)" stroke="#3465A4" stroke-width="0.390712" stroke-linejoin="round"/>
<path opacity="0.465909" fill-rule="evenodd" clip-rule="evenodd" d="M2.66633 6.73486L15.4782 6.76018L14.8632 14.5752C14.8303 14.9938 14.6871 15.1332 14.1315 15.1332C13.4003 15.1332 2.92671 15.1205 1.86523 15.1205C1.9565 14.9952 1.99564 14.7343 1.99616 14.728L2.66633 6.73486Z" stroke="url(#paint2_linear)" stroke-width="0.390711" stroke-linecap="round"/>
<defs>
<linearGradient id="paint0_linear" x1="5.98368" y1="12.5581" x2="4.96868" y2="2.717" gradientUnits="userSpaceOnUse">
<stop stop-color="#424242"/>
<stop offset="1" stop-color="#777777"/>
</linearGradient>
<linearGradient id="paint1_linear" x1="7.5708" y1="14.7539" x2="7.52757" y2="12.8248" gradientUnits="userSpaceOnUse">
<stop stop-color="#6194CB"/>
<stop offset="1" stop-color="#729FCF"/>
</linearGradient>
<linearGradient id="paint2_linear" x1="5.27416" y1="10.1735" x2="5.23821" y2="14.6778" gradientUnits="userSpaceOnUse">
<stop stop-color="white" stop-opacity="0.796078"/>
<stop offset="1" stop-color="white" stop-opacity="0.215686"/>
</linearGradient>
</defs>
</svg>
