<svg width="16" height="16" viewBox="0 0 16 16" fill="none" xmlns="http://www.w3.org/2000/svg">
<g clip-path="url(#clip0)">
<path d="M14.8851 0.5H1.11495C0.775322 0.5 0.5 0.78557 0.5 1.13784V14.8622C0.5 15.2144 0.775322 15.5 1.11495 15.5H14.8851C15.2247 15.5 15.5 15.2144 15.5 14.8622V1.13784C15.5 0.78557 15.2247 0.5 14.8851 0.5Z" fill="#888A85"/>
<path fill-rule="evenodd" clip-rule="evenodd" d="M1.11495 1C1.06853 1 1 1.04433 1 1.13784V14.8622C1 14.9557 1.06853 15 1.11495 15H14.8851C14.9315 15 15 14.9557 15 14.8622V1.13784C15 1.04433 14.9315 1 14.8851 1H1.11495ZM0 1.13784C0 0.526807 0.482115 0 1.11495 0H14.8851C15.5179 0 16 0.526807 16 1.13784V14.8622C16 15.4732 15.5179 16 14.8851 16H1.11495C0.482115 16 0 15.4732 0 14.8622V1.13784Z" fill="#888A85"/>
<path d="M14.8851 0.5H1.11495C0.775322 0.5 0.5 0.78557 0.5 1.13784V14.8622C0.5 15.2144 0.775322 15.5 1.11495 15.5H14.8851C15.2247 15.5 15.5 15.2144 15.5 14.8622V1.13784C15.5 0.78557 15.2247 0.5 14.8851 0.5Z" fill="#EEEEEC" stroke="#888A85"/>
<path d="M13.6721 3.18262H2.32794C2.24768 3.18262 2.18262 3.26125 2.18262 3.35825V12.6418C2.18262 12.7388 2.24768 12.8174 2.32794 12.8174H13.6721C13.7524 12.8174 13.8174 12.7388 13.8174 12.6418V3.35825C13.8174 3.26125 13.7524 3.18262 13.6721 3.18262Z" fill="#709BD2" stroke="#204A87" stroke-width="0.36517" stroke-linecap="round" stroke-linejoin="round"/>
<path d="M13 6C14.6569 6 16 4.65685 16 3C16 1.34315 14.6569 0 13 0C11.3431 0 10 1.34315 10 3C10 4.65685 11.3431 6 13 6Z" fill="url(#paint0_radial)"/>
<path fill-rule="evenodd" clip-rule="evenodd" d="M8.17678 3.96623C8.06567 3.91002 7.93489 3.91002 7.82375 3.96623C7.19736 4.2829 5.08197 5.35234 4.39397 5.70014C4.26025 5.76776 4.17578 5.90594 4.17578 6.05709C4.17578 6.83723 4.17578 9.16289 4.17578 9.94302C4.17578 10.0942 4.26025 10.2324 4.39397 10.3C5.08197 10.6478 7.19736 11.7172 7.82375 12.0339C7.93489 12.0901 8.06567 12.0901 8.17678 12.0339C8.80317 11.7172 10.9186 10.6478 11.6066 10.3C11.7403 10.2324 11.8248 10.0942 11.8248 9.94302C11.8248 9.16289 11.8248 6.83723 11.8248 6.05709C11.8248 5.90594 11.7403 5.76776 11.6066 5.70014C10.9186 5.35234 8.80317 4.2829 8.17678 3.96623Z" fill="#555753"/>
<path fill-rule="evenodd" clip-rule="evenodd" d="M7.88135 4.21153L4.56529 5.88397C4.52021 5.90671 4.48347 5.94137 4.45796 5.983C4.43228 6.02491 4.41797 6.07391 4.41797 6.12509V9.87324C4.41797 9.92442 4.43228 9.97342 4.45796 10.0153C4.48347 10.057 4.5202 10.0916 4.56529 10.1144L7.88134 11.7868C7.95581 11.8244 8.04345 11.8244 8.11791 11.7868L11.434 10.1144C11.4791 10.0916 11.5158 10.057 11.5413 10.0153C11.567 9.97342 11.5813 9.92442 11.5813 9.87324V6.12509C11.5813 6.07391 11.567 6.02491 11.5413 5.983C11.5158 5.94137 11.4791 5.90671 11.434 5.88397L8.11792 4.21153C8.04345 4.17395 7.95582 4.17396 7.88135 4.21153Z" fill="#2E3436"/>
<path fill-rule="evenodd" clip-rule="evenodd" d="M7.98292 4.41284L4.66684 6.08529C4.66683 6.08529 4.66684 6.08529 4.66684 6.08529C4.66024 6.08862 4.65447 6.09386 4.65022 6.1008C4.64593 6.10779 4.64345 6.11611 4.64345 6.12509V9.87324C4.64345 9.88223 4.64594 9.89055 4.65022 9.89754C4.65447 9.90448 4.66023 9.90971 4.66683 9.91304L7.98287 11.5855C7.98287 11.5855 7.98286 11.5855 7.98287 11.5855C7.9935 11.5908 8.00579 11.5908 8.01636 11.5855L11.3325 9.91304C11.3325 9.91304 11.3324 9.91304 11.3325 9.91304C11.339 9.90972 11.3448 9.90449 11.349 9.89755C11.3533 9.89055 11.3558 9.88223 11.3558 9.87324V6.12509C11.3558 6.11611 11.3533 6.10779 11.349 6.10079C11.3448 6.09385 11.339 6.08862 11.3324 6.08528L8.01633 4.41283C8.00576 4.4075 7.99352 4.40749 7.98292 4.41284ZM11.434 5.88397C11.4791 5.90671 11.5158 5.94137 11.5413 5.983C11.567 6.02491 11.5813 6.07391 11.5813 6.12509V9.87324C11.5813 9.92442 11.567 9.97342 11.5413 10.0153C11.5158 10.057 11.4791 10.0916 11.434 10.1144L8.11791 11.7868C8.04345 11.8244 7.95581 11.8244 7.88134 11.7868L4.56529 10.1144C4.5202 10.0916 4.48347 10.057 4.45796 10.0153C4.43228 9.97342 4.41797 9.92442 4.41797 9.87324V6.12509C4.41797 6.07391 4.43228 6.02491 4.45796 5.983C4.48347 5.94137 4.52021 5.90671 4.56529 5.88397L7.88135 4.21153C7.95582 4.17396 8.04345 4.17395 8.11792 4.21153L11.434 5.88397Z" fill="#888A85"/>
<path d="M7.77051 5.84071C7.77051 5.74772 7.80746 5.67702 7.87323 5.64414C7.939 5.61126 8.02821 5.61892 8.12123 5.66543C8.61949 5.91447 9.63201 6.42097 10.1303 6.67002C10.2233 6.71653 10.3125 6.79804 10.3783 6.89667C10.4441 6.99531 10.481 7.10297 10.481 7.19596V9.02885C10.481 9.12184 10.4441 9.19255 10.3783 9.22543C10.3125 9.2583 10.2233 9.25065 10.1303 9.20416C9.63201 8.9551 8.61949 8.44861 8.12123 8.19955C8.02821 8.15305 7.939 8.07152 7.87323 7.97289C7.80746 7.87426 7.77051 7.76661 7.77051 7.67362V5.84071Z" fill="#729FCF"/>
<path d="M6.64062 6.40541C6.64062 6.31242 6.67758 6.24171 6.74335 6.20883C6.80912 6.17596 6.89833 6.18362 6.99134 6.23012C7.48961 6.47917 8.50213 6.98567 9.0004 7.23472C9.09344 7.28122 9.18263 7.36274 9.24841 7.46137C9.31418 7.56001 9.35112 7.66767 9.35112 7.76065V9.59354C9.35112 9.68653 9.31418 9.75725 9.24841 9.79012C9.18263 9.823 9.09344 9.81535 9.0004 9.76886C8.50213 9.51979 7.48961 9.01331 6.99134 8.76425C6.89833 8.71775 6.80912 8.63622 6.74335 8.53759C6.67758 8.43896 6.64062 8.33131 6.64062 8.23832V6.40541Z" fill="#8AE234"/>
<path d="M5.51172 6.9701C5.51172 6.87712 5.54867 6.80641 5.61444 6.77353C5.68021 6.74065 5.76942 6.74831 5.86244 6.79482C6.3607 7.04387 7.37322 7.55037 7.87149 7.79941C7.96453 7.84592 8.05373 7.92743 8.1195 8.02607C8.18528 8.1247 8.22221 8.23237 8.22221 8.32535V10.1582C8.22221 10.2512 8.18528 10.3219 8.1195 10.3548C8.05373 10.3877 7.96453 10.38 7.87149 10.3336C7.37322 10.0845 6.3607 9.578 5.86244 9.32894C5.76942 9.28245 5.68021 9.20092 5.61444 9.10229C5.54867 9.00366 5.51172 8.896 5.51172 8.80301V6.9701Z" fill="#EF2929"/>
</g>
<defs>
<radialGradient id="paint0_radial" cx="0" cy="0" r="1" gradientUnits="userSpaceOnUse" gradientTransform="translate(13 3) scale(3)">
<stop stop-color="white"/>
<stop offset="0.5" stop-color="#E6FF8F" stop-opacity="0.932039"/>
<stop offset="1" stop-color="#FF3A20" stop-opacity="0.019417"/>
</radialGradient>
<clipPath id="clip0">
<rect width="16" height="16" fill="white"/>
</clipPath>
</defs>
</svg>
