<svg width="17" height="17" viewBox="0 0 17 17" fill="none" xmlns="http://www.w3.org/2000/svg">
<path fill-rule="evenodd" clip-rule="evenodd" d="M10.2459 14.0382L7.85898 11.9893V13.0084C7.79805 13.0115 7.73832 13.019 7.67701 13.019C4.93546 13.019 2.71042 10.8122 2.71042 8.09318C2.71042 6.11676 3.88401 4.40816 5.57906 3.62382L4.65852 1.81909C2.29473 2.94038 0.655273 5.32256 0.655273 8.09318C0.655273 11.9374 3.80101 15.0573 7.67701 15.0573C7.7379 15.0573 7.79801 15.0487 7.85898 15.0467V16.0765L10.2459 14.0382Z" fill="url(#paint0_linear)" stroke="#555753" stroke-width="0.409339" stroke-linecap="round" stroke-linejoin="round"/>
<path fill-rule="evenodd" clip-rule="evenodd" d="M6.65527 2.52412L9.04224 4.57302V3.55388C9.10317 3.55078 9.1629 3.54327 9.2242 3.54327C11.9658 3.54327 14.1908 5.75005 14.1908 8.46912C14.1908 10.4455 13.0172 12.1541 11.3222 12.9385L12.2427 14.7432C14.6065 13.6219 16.2459 11.2397 16.2459 8.46912C16.2459 4.62492 13.1002 1.50499 9.2242 1.50499C9.16331 1.50499 9.10321 1.51358 9.04224 1.51559V0.48584L6.65527 2.52412Z" fill="url(#paint1_linear)" stroke="#555753" stroke-width="0.409339" stroke-linecap="round" stroke-linejoin="round"/>
<path fill-rule="evenodd" clip-rule="evenodd" d="M8.75944 2.94445C8.61048 2.8691 8.43515 2.8691 8.28615 2.94445C7.44639 3.369 4.61039 4.80275 3.68802 5.26903C3.50875 5.35967 3.39551 5.54492 3.39551 5.74757C3.39551 6.79346 3.39551 9.91135 3.39551 10.9572C3.39551 11.1599 3.50875 11.3451 3.68802 11.4358C4.61039 11.9021 7.44639 13.3358 8.28615 13.7604C8.43515 13.8357 8.61048 13.8357 8.75944 13.7604C9.59921 13.3358 12.4353 11.9021 13.3576 11.4358C13.5369 11.3451 13.6501 11.1599 13.6501 10.9572C13.6501 9.91135 13.6501 6.79346 13.6501 5.74757C13.6501 5.54492 13.5369 5.35967 13.3576 5.26903C12.4353 4.80275 9.59921 3.369 8.75944 2.94445Z" fill="#555753"/>
<path fill-rule="evenodd" clip-rule="evenodd" d="M8.36486 3.27459L3.91918 5.51675C3.85874 5.54724 3.80949 5.5937 3.77529 5.64951C3.74086 5.70571 3.72168 5.77139 3.72168 5.84001V10.8649C3.72168 10.9336 3.74086 10.9993 3.77529 11.0555C3.80949 11.1113 3.85874 11.1577 3.91918 11.1882L8.36484 13.4304C8.46468 13.4807 8.58218 13.4807 8.682 13.4304L13.1277 11.1882C13.1881 11.1577 13.2374 11.1113 13.2716 11.0555C13.306 10.9993 13.3252 10.9336 13.3252 10.8649V5.84001C13.3252 5.77139 13.306 5.70571 13.2716 5.64951C13.2374 5.5937 13.1881 5.54724 13.1277 5.51675L8.68201 3.2746C8.58217 3.22422 8.46469 3.22423 8.36486 3.27459Z" fill="#2E3436"/>
<path fill-rule="evenodd" clip-rule="evenodd" d="M8.50102 3.54448L4.05533 5.78665C4.05532 5.78665 4.05533 5.78665 4.05533 5.78665C4.04648 5.79112 4.03874 5.79814 4.03305 5.80744C4.0273 5.81682 4.02397 5.82796 4.02397 5.84001V10.8649C4.02397 10.877 4.0273 10.8882 4.03305 10.8975C4.03875 10.9068 4.04646 10.9138 4.05531 10.9183L8.50095 13.1605C8.50096 13.1605 8.50094 13.1605 8.50095 13.1605C8.51521 13.1677 8.53169 13.1676 8.54586 13.1605L12.9916 10.9183C12.9916 10.9183 12.9916 10.9183 12.9916 10.9183C13.0004 10.9139 13.0081 10.9068 13.0138 10.8975C13.0196 10.8882 13.0229 10.877 13.0229 10.8649V5.84001C13.0229 5.82796 13.0196 5.81681 13.0138 5.80743C13.0081 5.79813 13.0004 5.79111 12.9915 5.78664L8.54582 3.54447C8.53164 3.53732 8.51523 3.53731 8.50102 3.54448ZM13.1277 5.51675C13.1881 5.54724 13.2374 5.5937 13.2716 5.64951C13.306 5.70571 13.3252 5.77139 13.3252 5.84001V10.8649C13.3252 10.9336 13.306 10.9993 13.2716 11.0555C13.2374 11.1113 13.1881 11.1577 13.1277 11.1882L8.682 13.4304C8.58218 13.4807 8.46468 13.4807 8.36484 13.4304L3.91918 11.1882C3.85874 11.1577 3.80949 11.1113 3.77529 11.0555C3.74086 10.9993 3.72168 10.9336 3.72168 10.8649V5.84001C3.72168 5.77139 3.74086 5.70571 3.77529 5.64951C3.80949 5.5937 3.85874 5.54724 3.91918 5.51675L8.36486 3.27459C8.46469 3.22423 8.58217 3.22422 8.68201 3.2746L13.1277 5.51675Z" fill="#888A85"/>
<path d="M8.21387 5.45725C8.21387 5.33259 8.26341 5.23779 8.35158 5.19371C8.43976 5.14964 8.55936 5.1599 8.68406 5.22225C9.35206 5.55614 10.7095 6.23517 11.3775 6.56906C11.5022 6.63141 11.6218 6.74069 11.71 6.87292C11.7982 7.00516 11.8477 7.1495 11.8477 7.27416V9.73142C11.8477 9.85609 11.7982 9.95089 11.71 9.99496C11.6218 10.039 11.5022 10.0288 11.3775 9.96645C10.7095 9.63254 9.35206 8.95353 8.68406 8.61962C8.55936 8.55729 8.43976 8.44798 8.35158 8.31575C8.26341 8.18352 8.21387 8.0392 8.21387 7.91453V5.45725Z" fill="#729FCF"/>
<path d="M6.69922 6.21433C6.69922 6.08967 6.74876 5.99487 6.83693 5.95079C6.92511 5.90672 7.04471 5.91698 7.16941 5.97933C7.83741 6.31322 9.19484 6.99225 9.86284 7.32614C9.98758 7.38849 10.1072 7.49777 10.1953 7.63C10.2835 7.76224 10.333 7.90658 10.333 8.03124V10.4885C10.333 10.6132 10.2835 10.708 10.1953 10.752C10.1072 10.7961 9.98758 10.7859 9.86284 10.7235C9.19484 10.3896 7.83741 9.71061 7.16941 9.3767C7.04471 9.31437 6.92511 9.20506 6.83693 9.07283C6.74876 8.9406 6.69922 8.79628 6.69922 8.67161V6.21433Z" fill="#8AE234"/>
<path d="M5.18555 6.97141C5.18555 6.84675 5.23509 6.75195 5.32326 6.70787C5.41144 6.6638 5.53104 6.67406 5.65574 6.73641C6.32374 7.0703 7.68117 7.74933 8.34917 8.08322C8.47391 8.14557 8.59349 8.25485 8.68167 8.38708C8.76985 8.51932 8.81937 8.66366 8.81937 8.78832V11.2456C8.81937 11.3702 8.76985 11.465 8.68167 11.5091C8.59349 11.5532 8.47391 11.5429 8.34917 11.4806C7.68117 11.1467 6.32374 10.4677 5.65574 10.1338C5.53104 10.0714 5.41144 9.96214 5.32326 9.82991C5.23509 9.69769 5.18555 9.55336 5.18555 9.42869V6.97141Z" fill="#EF2929"/>
<defs>
<linearGradient id="paint0_linear" x1="2.29978" y1="10.614" x2="0.306825" y2="7.3766" gradientUnits="userSpaceOnUse">
<stop stop-color="#3465A4"/>
<stop offset="1" stop-color="white"/>
</linearGradient>
<linearGradient id="paint1_linear" x1="14.6014" y1="5.94834" x2="16.5944" y2="9.18569" gradientUnits="userSpaceOnUse">
<stop stop-color="#3465A4"/>
<stop offset="1" stop-color="white"/>
</linearGradient>
</defs>
</svg>
