<?xml version="1.0" encoding="UTF-8" standalone="no"?>
<svg
   xmlns:osb="http://www.openswatchbook.org/uri/2009/osb"
   xmlns:dc="http://purl.org/dc/elements/1.1/"
   xmlns:cc="http://creativecommons.org/ns#"
   xmlns:rdf="http://www.w3.org/1999/02/22-rdf-syntax-ns#"
   xmlns:svg="http://www.w3.org/2000/svg"
   xmlns="http://www.w3.org/2000/svg"
   xmlns:xlink="http://www.w3.org/1999/xlink"
   xmlns:sodipodi="http://sodipodi.sourceforge.net/DTD/sodipodi-0.dtd"
   xmlns:inkscape="http://www.inkscape.org/namespaces/inkscape"
   version="1.1"
   width="16"
   height="15.999892"
   id="svg2"
   viewBox="0 0 16 15.999892"
   inkscape:version="0.92.4 (f8dce91, 2019-08-02)"
   sodipodi:docname="gimp-prefs-folders-icon-themes.svg">
  <sodipodi:namedview
     pagecolor="#ffffff"
     bordercolor="#666666"
     borderopacity="1"
     objecttolerance="10"
     gridtolerance="10"
     guidetolerance="10"
     inkscape:pageopacity="0"
     inkscape:pageshadow="2"
     inkscape:window-width="757"
     inkscape:window-height="480"
     id="namedview1715"
     showgrid="false"
     inkscape:zoom="10.429895"
     inkscape:cx="17.38006"
     inkscape:cy="7.5132611"
     inkscape:window-x="1740"
     inkscape:window-y="377"
     inkscape:window-maximized="0"
     inkscape:current-layer="svg2" />
  <metadata
     id="metadata90">
    <rdf:RDF>
      <cc:Work>
        <dc:format>image/svg+xml</dc:format>
        <dc:type
           rdf:resource="http://purl.org/dc/dcmitype/StillImage" />
        <dc:title></dc:title>
        <dc:contributor>
          <cc:Agent>
            <dc:title>many unknown and unnamed, Andrew Chadwick, Alexandre Prokoudine, Aryeom Han, Benoit Touchette, Jakub Steiner, Jehan, Johannes Matschke, Kevin Payne, Klaus Staedtler, Marek Dvoroznak, Michael Natterer</dc:title>
          </cc:Agent>
        </dc:contributor>
        <dc:description>Enhanced, extended tango-art-libre for GIMP</dc:description>
      </cc:Work>
    </rdf:RDF>
  </metadata>
  <defs
     id="defs7386">
    <linearGradient
       id="linearGradient8340">
      <stop
         stop-opacity="0.796078"
         stop-color="#ffffff"
         id="stop8342" />
      <stop
         stop-opacity="0.215686"
         stop-color="#ffffff"
         offset="1"
         id="stop8344" />
    </linearGradient>
    <linearGradient
       id="linearGradient3204-1">
      <stop
         id="stop3206" />
      <stop
         stop-opacity="0"
         id="stop3208"
         offset="1" />
    </linearGradient>
    <linearGradient
       id="linearGradient6500">
      <stop
         stop-color="#857c63"
         id="stop6502" />
      <stop
         stop-color="#221f19"
         id="stop6504"
         offset="1" />
    </linearGradient>
    <linearGradient
       id="linearGradient6468">
      <stop
         stop-color="#ffffff"
         id="stop6470" />
      <stop
         stop-color="#b9b9b0"
         id="stop6472"
         offset="1" />
    </linearGradient>
    <linearGradient
       id="linearGradient8542">
      <stop
         stop-color="#5b676b"
         id="stop8544" />
      <stop
         stop-color="#141718"
         id="stop8546"
         offset="1" />
    </linearGradient>
    <linearGradient
       gradientTransform="matrix(0,-735328.32,170712.69,0,2464326300,577972450)"
       osb:paint="solid"
       id="linearGradient19282">
      <stop
         stop-color="#b4b4b4"
         id="stop19284" />
    </linearGradient>
    <linearGradient
       id="linearGradient6939">
      <stop
         stop-color="#bdbdbd"
         id="stop6941" />
      <stop
         stop-color="#e2e2e2"
         offset="0.333333"
         id="stop6947" />
      <stop
         stop-color="#a3a3a3"
         id="stop6949"
         offset="0.666667" />
      <stop
         stop-color="#dddddd"
         id="stop6943"
         offset="1" />
    </linearGradient>
    <linearGradient
       id="linearGradient6963">
      <stop
         stop-color="#696969"
         id="stop6965" />
      <stop
         id="stop6967"
         offset="1" />
    </linearGradient>
    <linearGradient
       osb:paint="gradient"
       x1="231.55"
       x2="320.70001"
       gradientUnits="userSpaceOnUse"
       id="linearGradient6057"
       gradientTransform="matrix(0.01502614,0,0,0.01468232,2.9686133,1037.3257)">
      <stop
         stop-color="#a11f7c"
         id="stop6053" />
      <stop
         stop-opacity="0.984"
         stop-color="#541f31"
         offset="1"
         id="stop6055" />
    </linearGradient>
    <linearGradient
       id="linearGradient3096">
      <stop
         stop-color="#424242"
         id="stop3098" />
      <stop
         stop-color="#777777"
         offset="1"
         id="stop3100" />
    </linearGradient>
    <linearGradient
       id="linearGradient9766">
      <stop
         stop-color="#6194cb"
         id="stop9768" />
      <stop
         stop-color="#729fcf"
         id="stop9770"
         offset="1" />
    </linearGradient>
    <linearGradient
       id="linearGradient6951">
      <stop
         stop-color="#6e3d09"
         id="stop6953" />
      <stop
         stop-color="#ea8113"
         offset="0.242424"
         id="stop6959" />
      <stop
         stop-color="#5c3307"
         id="stop6961"
         offset="0.621212" />
      <stop
         stop-color="#e07c12"
         id="stop6955"
         offset="1" />
    </linearGradient>
    <radialGradient
       r="19.2292"
       cy="22.300018"
       cx="18.557627"
       gradientTransform="matrix(1.77275,0,0,1.29668,-16.3404,-6.615959)"
       gradientUnits="userSpaceOnUse"
       id="radialGradient7780-4"
       xlink:href="#linearGradient6500" />
    <radialGradient
       r="4.8310289"
       cy="25.27103"
       cx="6.02422"
       gradientTransform="matrix(0.916159,0.09318684,-0.108765,1.069309,3.253668,-3.029272)"
       gradientUnits="userSpaceOnUse"
       id="radialGradient7786-8"
       xlink:href="#linearGradient8542" />
    <radialGradient
       r="3.5153141"
       cy="19.597878"
       cx="69.473244"
       gradientTransform="matrix(1.318488,0,0,1.318488,-22.1264,-6.241691)"
       gradientUnits="userSpaceOnUse"
       id="radialGradient7790-6"
       xlink:href="#linearGradient6468" />
    <radialGradient
       r="7.5791559"
       cy="35.35651"
       cx="15.415101"
       gradientTransform="matrix(-0.09389073,-1.406075,1.370264,-0.09149987,18.28382,59.78933)"
       gradientUnits="userSpaceOnUse"
       id="radialGradient7796-8"
       xlink:href="#linearGradient6963" />
    <linearGradient
       xlink:href="#linearGradient8340"
       id="linearGradient322-9"
       gradientTransform="matrix(0.51475824,0,0,0.31892069,-1.5353748,-0.151419)"
       x1="13.035696"
       y1="32.567184"
       x2="12.853771"
       y2="46.689312"
       gradientUnits="userSpaceOnUse" />
    <linearGradient
       y2="6.1802502"
       x2="15.514889"
       y1="31.36775"
       x1="18.112709"
       gradientTransform="matrix(0.3907116,0,0,0.3907116,-1.1917154,0.363604)"
       gradientUnits="userSpaceOnUse"
       id="linearGradient9775"
       xlink:href="#linearGradient3096" />
    <linearGradient
       y2="30.29306"
       x2="21.2132"
       y1="28.083361"
       x1="32.35014"
       gradientTransform="translate(-3.83655,0.345971)"
       gradientUnits="userSpaceOnUse"
       id="linearGradient9777"
       xlink:href="#linearGradient3204-1" />
    <linearGradient
       y2="46.98568"
       x2="39.524544"
       y1="19.11068"
       x1="14.96875"
       gradientUnits="userSpaceOnUse"
       id="linearGradient9779"
       xlink:href="#linearGradient8340" />
    <linearGradient
       y2="31.57"
       x2="5.9846292"
       y1="23.362427"
       x1="6.3051529"
       gradientUnits="userSpaceOnUse"
       id="linearGradient9781"
       xlink:href="#linearGradient8340" />
    <linearGradient
       y2="11.182488"
       x2="27.753893"
       y1="19.239889"
       x1="37.017639"
       gradientTransform="matrix(-0.117687,-0.528197,0.528197,-0.117687,46.2238,49.69112)"
       gradientUnits="userSpaceOnUse"
       id="linearGradient9783"
       xlink:href="#linearGradient6951" />
    <linearGradient
       y2="33.438831"
       x2="23.109329"
       y1="30.001329"
       x1="19.394735"
       gradientTransform="matrix(-0.117687,-0.528197,0.528197,-0.117687,40.56367,46.8748)"
       gradientUnits="userSpaceOnUse"
       id="linearGradient9785"
       xlink:href="#linearGradient6939" />
    <linearGradient
       y2="42.28215"
       x2="7.7521091"
       y1="37.752247"
       x1="13.236155"
       gradientTransform="matrix(0.11984,-0.445379,0.445379,0.11984,42.0839,34.30798)"
       gradientUnits="userSpaceOnUse"
       id="linearGradient9787"
       xlink:href="#linearGradient8340" />
    <linearGradient
       y2="32.050499"
       x2="22.065331"
       y1="36.987999"
       x1="22.175976"
       gradientTransform="matrix(0.3907116,0,0,0.3907116,-1.1917154,0.363604)"
       gradientUnits="userSpaceOnUse"
       id="linearGradient9789"
       xlink:href="#linearGradient9766" />
    <linearGradient
       osb:paint="solid"
       id="linearGradient5487">
      <stop
         id="stop5485"
         offset="0"
         style="stop-color:#888a85;stop-opacity:1;" />
    </linearGradient>
    <linearGradient
       id="linearGradient-1-6"
       y2="182.98888"
       x2="290.54846"
       y1="45.219006"
       x1="312.01022"
       gradientTransform="scale(0.86512509,1.1559022)"
       gradientUnits="userSpaceOnUse">
      <stop
         id="stop703"
         offset="0%"
         stop-color="#7E56F7" />
      <stop
         id="stop705"
         offset="44.5254486%"
         stop-color="#677CF6" />
      <stop
         id="stop707"
         offset="100%"
         stop-color="#3DB0F0" />
    </linearGradient>
    <radialGradient
       inkscape:collect="always"
       xlink:href="#radialGradient-2-1"
       id="radialGradient812"
       gradientTransform="scale(0.86512509,1.1559022)"
       cx="289.31659"
       cy="100.09725"
       fx="289.31659"
       fy="100.09725"
       r="149.24791"
       gradientUnits="userSpaceOnUse" />
    <radialGradient
       id="radialGradient-2-1"
       gradientTransform="translate(0.467598,0.448487),scale(1.000000,0.748441),rotate(-35.912601),scale(1.000000,1.616335),translate(-0.467598,-0.448487)"
       r="0.67249018"
       fy="0.44848675"
       fx="0.4675985"
       cy="0.44848675"
       cx="0.4675985">
      <stop
         id="stop710"
         offset="0%"
         stop-opacity="0"
         stop-color="#D2D3E0" />
      <stop
         id="stop712"
         offset="42.6885382%"
         stop-opacity="0.245350346"
         stop-color="#E2E3EC" />
      <stop
         id="stop714"
         offset="58.698425%"
         stop-opacity="0.362185169"
         stop-color="#E7E7EF" />
      <stop
         id="stop716"
         offset="100%"
         stop-color="#FFFFFF" />
    </radialGradient>
    <radialGradient
       inkscape:collect="always"
       xlink:href="#radialGradient-2-1"
       id="radialGradient950"
       gradientTransform="scale(0.86512509,1.1559022)"
       cx="289.31659"
       cy="100.09725"
       fx="289.31659"
       fy="100.09725"
       r="149.24791"
       gradientUnits="userSpaceOnUse" />
    <radialGradient
       id="radialGradient960"
       gradientTransform="translate(0.467598,0.448487),scale(1.000000,0.748441),rotate(-35.912601),scale(1.000000,1.616335),translate(-0.467598,-0.448487)"
       r="0.67249018"
       fy="0.44848675"
       fx="0.4675985"
       cy="0.44848675"
       cx="0.4675985">
      <stop
         id="stop952"
         offset="0%"
         stop-opacity="0"
         stop-color="#D2D3E0" />
      <stop
         id="stop954"
         offset="42.6885382%"
         stop-opacity="0.245350346"
         stop-color="#E2E3EC" />
      <stop
         id="stop956"
         offset="58.698425%"
         stop-opacity="0.362185169"
         stop-color="#E7E7EF" />
      <stop
         id="stop958"
         offset="100%"
         stop-color="#FFFFFF" />
    </radialGradient>
    <linearGradient
       id="linearGradient-4-8"
       y2="224.50658"
       x2="194.89391"
       y1="69.652252"
       x1="218.69231"
       gradientTransform="scale(0.86512509,1.1559022)"
       gradientUnits="userSpaceOnUse">
      <stop
         id="stop720"
         offset="0%"
         stop-color="#5EE2E7" />
      <stop
         id="stop722"
         offset="27.3977292%"
         stop-color="#99E7C4" />
      <stop
         id="stop724"
         offset="100%"
         stop-color="#E6ED43" />
    </linearGradient>
    <radialGradient
       inkscape:collect="always"
       xlink:href="#radialGradient-2-1"
       id="radialGradient814"
       gradientTransform="scale(0.86512509,1.1559022)"
       cx="196.84441"
       cy="134.70226"
       fx="196.84441"
       fy="134.70226"
       r="149.24791"
       gradientUnits="userSpaceOnUse" />
    <radialGradient
       id="radialGradient983"
       gradientTransform="translate(0.467598,0.448487),scale(1.000000,0.748441),rotate(-35.912601),scale(1.000000,1.616335),translate(-0.467598,-0.448487)"
       r="0.67249018"
       fy="0.44848675"
       fx="0.4675985"
       cy="0.44848675"
       cx="0.4675985">
      <stop
         id="stop975"
         offset="0%"
         stop-opacity="0"
         stop-color="#D2D3E0" />
      <stop
         id="stop977"
         offset="42.6885382%"
         stop-opacity="0.245350346"
         stop-color="#E2E3EC" />
      <stop
         id="stop979"
         offset="58.698425%"
         stop-opacity="0.362185169"
         stop-color="#E7E7EF" />
      <stop
         id="stop981"
         offset="100%"
         stop-color="#FFFFFF" />
    </radialGradient>
    <radialGradient
       inkscape:collect="always"
       xlink:href="#radialGradient-2-1"
       id="radialGradient985"
       gradientTransform="scale(0.86512509,1.1559022)"
       cx="196.84441"
       cy="134.70226"
       fx="196.84441"
       fy="134.70226"
       r="149.24791"
       gradientUnits="userSpaceOnUse" />
    <radialGradient
       id="radialGradient995"
       gradientTransform="translate(0.467598,0.448487),scale(1.000000,0.748441),rotate(-35.912601),scale(1.000000,1.616335),translate(-0.467598,-0.448487)"
       r="0.67249018"
       fy="0.44848675"
       fx="0.4675985"
       cy="0.44848675"
       cx="0.4675985">
      <stop
         id="stop987"
         offset="0%"
         stop-opacity="0"
         stop-color="#D2D3E0" />
      <stop
         id="stop989"
         offset="42.6885382%"
         stop-opacity="0.245350346"
         stop-color="#E2E3EC" />
      <stop
         id="stop991"
         offset="58.698425%"
         stop-opacity="0.362185169"
         stop-color="#E7E7EF" />
      <stop
         id="stop993"
         offset="100%"
         stop-color="#FFFFFF" />
    </radialGradient>
    <linearGradient
       id="linearGradient-6-7"
       y2="259.11157"
       x2="102.42172"
       y1="104.25726"
       x1="126.22012"
       gradientTransform="scale(0.86512509,1.1559022)"
       gradientUnits="userSpaceOnUse">
      <stop
         id="stop728"
         offset="0%"
         stop-color="#F458BA" />
      <stop
         id="stop730"
         offset="25.6996044%"
         stop-color="#F46E8F" />
      <stop
         id="stop732"
         offset="51.5179513%"
         stop-color="#EE767A" />
      <stop
         id="stop734"
         offset="72.4834024%"
         stop-color="#EF8F78" />
      <stop
         id="stop736"
         offset="100%"
         stop-color="#FAD58A" />
    </linearGradient>
    <radialGradient
       inkscape:collect="always"
       xlink:href="#radialGradient-2-1"
       id="radialGradient816"
       gradientTransform="scale(0.86512509,1.1559022)"
       cx="104.37224"
       cy="169.30727"
       fx="104.37224"
       fy="169.30727"
       r="149.24791"
       gradientUnits="userSpaceOnUse" />
    <radialGradient
       id="radialGradient1024"
       gradientTransform="translate(0.467598,0.448487),scale(1.000000,0.748441),rotate(-35.912601),scale(1.000000,1.616335),translate(-0.467598,-0.448487)"
       r="0.67249018"
       fy="0.44848675"
       fx="0.4675985"
       cy="0.44848675"
       cx="0.4675985">
      <stop
         id="stop1016"
         offset="0%"
         stop-opacity="0"
         stop-color="#D2D3E0" />
      <stop
         id="stop1018"
         offset="42.6885382%"
         stop-opacity="0.245350346"
         stop-color="#E2E3EC" />
      <stop
         id="stop1020"
         offset="58.698425%"
         stop-opacity="0.362185169"
         stop-color="#E7E7EF" />
      <stop
         id="stop1022"
         offset="100%"
         stop-color="#FFFFFF" />
    </radialGradient>
    <radialGradient
       inkscape:collect="always"
       xlink:href="#radialGradient-2-1"
       id="radialGradient1026"
       gradientTransform="scale(0.86512509,1.1559022)"
       cx="104.37224"
       cy="169.30727"
       fx="104.37224"
       fy="169.30727"
       r="149.24791"
       gradientUnits="userSpaceOnUse" />
    <radialGradient
       id="radialGradient1036"
       gradientTransform="translate(0.467598,0.448487),scale(1.000000,0.748441),rotate(-35.912601),scale(1.000000,1.616335),translate(-0.467598,-0.448487)"
       r="0.67249018"
       fy="0.44848675"
       fx="0.4675985"
       cy="0.44848675"
       cx="0.4675985">
      <stop
         id="stop1028"
         offset="0%"
         stop-opacity="0"
         stop-color="#D2D3E0" />
      <stop
         id="stop1030"
         offset="42.6885382%"
         stop-opacity="0.245350346"
         stop-color="#E2E3EC" />
      <stop
         id="stop1032"
         offset="58.698425%"
         stop-opacity="0.362185169"
         stop-color="#E7E7EF" />
      <stop
         id="stop1034"
         offset="100%"
         stop-color="#FFFFFF" />
    </radialGradient>
  </defs>
  <path
     id="path304-4"
     d="m 2.5670257,6.796249 12.8118623,0.02532 -0.614998,7.815005 c -0.03294,0.418652 -0.176085,0.55802 -0.731668,0.55802 -0.731218,0 -11.2048149,-0.01266 -12.26629,-0.01266 0.091269,-0.125344 0.1304022,-0.386266 0.130926,-0.392513 z"
     style="opacity:0.46590911;fill:none;fill-opacity:1;fill-rule:evenodd;stroke:url(#linearGradient322-9);stroke-width:0.39071149px;stroke-linecap:round;stroke-linejoin:miter;stroke-opacity:1"
     inkscape:connector-curvature="0" />
  <g
     id="g340">
    <path
       inkscape:connector-curvature="0"
       style="fill:#ffffff;fill-opacity:1;fill-rule:nonzero;stroke:url(#linearGradient9775);stroke-width:0.39071161;stroke-linecap:round;stroke-linejoin:round;stroke-miterlimit:4;stroke-dasharray:none;stroke-opacity:1"
       id="path216-8"
       d="m 0.57499669,15.479227 c 0.008516,0.162654 0.17969018,0.32531 0.34234522,0.32531 H 13.157172 c 0.162654,0 0.316794,-0.162656 0.308278,-0.32531 L 13.099571,4.841425 C 13.091071,4.678771 12.919884,4.516113 12.757229,4.516113 H 7.5721451 c -0.1895174,0 -0.482323,-0.123305 -0.5476386,-0.432374 L 6.7856289,2.953382 C 6.7248854,2.665946 6.4409377,2.547868 6.2782829,2.547868 H 0.50401104 c -0.16265824,0 -0.31679709,0.162655 -0.30828118,0.32531 z" />
    <g
       style="display:inline;fill:none;fill-rule:evenodd;stroke:none;stroke-width:1"
       transform="matrix(0.01380409,0,0,0.01418458,6.3416086,0.07225572)"
       id="icon_sticker">
      <g
         id="icon"
         transform="translate(15.483871)">
        <path
           style="fill:#ffffff"
           inkscape:connector-curvature="0"
           d="m 251.59253,2.6475107 c -6.97242,-3.53001427 -15.17915,-3.53001427 -22.15363,0 C 190.13081,22.536739 57.382617,89.705182 14.207911,111.54949 5.8166529,115.79596 0.51612903,124.47478 0.51612903,133.96822 c 0,48.99827 0,195.06529 0,244.06293 0,9.49407 5.30052387,18.17331 13.69178197,22.41915 43.174706,21.84556 175.922899,89.01442 215.230989,108.90344 6.97448,3.52835 15.18121,3.52835 22.15363,0 39.30809,-19.88902 172.05856,-87.05788 215.23264,-108.90344 8.39043,-4.24584 13.69096,-12.92508 13.69096,-22.41915 0,-48.99764 0,-195.06466 0,-244.06293 0,-9.49344 -5.30053,-18.17226 -13.69096,-22.41873 C 423.65109,89.705182 290.90062,22.536739 251.59253,2.6475107 Z"
           id="hexagon_outline" />
        <path
           style="fill:#000012"
           inkscape:connector-curvature="0"
           d="M 232.83896,9.365242 17.607143,118.26765 c -2.926057,1.48075 -5.31074,3.73718 -6.966287,6.44794 -1.6669968,2.72952 -2.5955603,5.91993 -2.5955603,9.25263 v 244.06293 c 0,3.33304 0.9285726,6.52376 2.5956403,9.25344 1.655444,2.71065 4.039942,4.96691 6.966238,6.44757 L 232.83817,502.63561 c 4.83365,2.44531 10.52195,2.44578 15.35478,1.6e-4 L 463.42592,393.73215 c 2.92577,-1.48053 5.31013,-3.73685 6.9655,-6.44755 1.66697,-2.72969 2.59554,-5.92041 2.59554,-9.25345 V 133.96822 c 0,-3.3327 -0.92856,-6.52311 -2.59546,-9.25264 -1.65548,-2.71081 -4.04002,-4.96729 -6.96626,-6.44828 L 248.19332,9.3656736 C 243.35964,6.9184664 237.67229,6.9189374 232.83896,9.365242 Z"
           id="hexagon" />
        <g
           id="root"
           transform="translate(64,87)">
          <g
             style="opacity:0.89957682"
             id="frame_back">
            <path
               style="fill:url(#linearGradient-1-6)"
               id="use744"
               d="m 160.51613,16 c 0,-6.5867003 2.61747,-11.5953155 7.2765,-13.9242804 4.65904,-2.32896479 10.97811,-1.78643357 17.56687,1.507948 35.2951,17.6415474 107.01774,53.5195994 142.31284,71.1611464 6.59062,3.294382 12.90887,9.068317 17.56811,16.055211 4.65924,6.986895 7.27568,14.613275 7.27568,21.199975 v 129.83407 c 0,6.58711 -2.61644,11.59614 -7.27568,13.9249 -4.65924,2.32896 -10.97749,1.78705 -17.56811,-1.50651 -35.2951,-17.64258 -107.01774,-53.5198 -142.31284,-71.16218 -6.58876,-3.29355 -12.90783,-9.06893 -17.56687,-16.05562 -4.65903,-6.98648 -7.2765,-14.61204 -7.2765,-21.19915 z"
               inkscape:connector-curvature="0" />
            <path
               style="fill:url(#radialGradient812);fill-opacity:0.6"
               id="use746"
               d="m 160.51613,16 c 0,-6.5867003 2.61747,-11.5953155 7.2765,-13.9242804 4.65904,-2.32896479 10.97811,-1.78643357 17.56687,1.507948 35.2951,17.6415474 107.01774,53.5195994 142.31284,71.1611464 6.59062,3.294382 12.90887,9.068317 17.56811,16.055211 4.65924,6.986895 7.27568,14.613275 7.27568,21.199975 v 129.83407 c 0,6.58711 -2.61644,11.59614 -7.27568,13.9249 -4.65924,2.32896 -10.97749,1.78705 -17.56811,-1.50651 -35.2951,-17.64258 -107.01774,-53.5198 -142.31284,-71.16218 -6.58876,-3.29355 -12.90783,-9.06893 -17.56687,-16.05562 -4.65903,-6.98648 -7.2765,-14.61204 -7.2765,-21.19915 z"
               inkscape:connector-curvature="0" />
          </g>
          <g
             style="opacity:0.89704237;fill:#ffffff"
             id="pic/moon"
             transform="translate(289.07513,94)">
            <path
               inkscape:connector-curvature="0"
               d="M 0,17.768442 C 0,4.6596409 6.5505521,-2.5074178 14.95358,0.80355953 13.988605,3.477102 13.451172,6.7444138 13.451172,10.49921 c 0,14.008691 7.480782,29.498093 16.708795,34.596548 0.592985,0.327623 1.178755,0.604366 1.75579,0.8317 C 29.281764,53.227217 23.463332,56.096856 16.708795,52.36499 7.4807824,47.266535 0,31.777133 0,17.768442 Z"
               id="moon" />
          </g>
          <g
             style="opacity:0.89957682"
             id="frame_mid">
            <path
               style="fill:url(#linearGradient-4-8)"
               id="use751"
               d="m 80.516129,56 c 0,-6.5867 2.617471,-11.595316 7.276506,-13.92428 4.659035,-2.328965 10.978106,-1.786434 17.566865,1.507948 35.2951,17.641547 107.01774,53.519599 142.31284,71.161142 6.59062,3.29439 12.90887,9.06832 17.56811,16.05521 4.65924,6.9869 7.27568,14.61328 7.27568,21.19998 v 129.83407 c 0,6.58711 -2.61644,11.59614 -7.27568,13.9249 -4.65924,2.32896 -10.97749,1.78705 -17.56811,-1.50651 C 212.37724,276.60988 140.6546,240.73266 105.3595,223.09028 98.770741,219.79673 92.45167,214.02135 87.792635,207.03466 83.1336,200.04818 80.516129,192.42262 80.516129,185.83551 Z"
               inkscape:connector-curvature="0" />
            <path
               style="fill:url(#radialGradient814);fill-opacity:0.6"
               id="use753"
               d="m 80.516129,56 c 0,-6.5867 2.617471,-11.595316 7.276506,-13.92428 4.659035,-2.328965 10.978106,-1.786434 17.566865,1.507948 35.2951,17.641547 107.01774,53.519599 142.31284,71.161142 6.59062,3.29439 12.90887,9.06832 17.56811,16.05521 4.65924,6.9869 7.27568,14.61328 7.27568,21.19998 v 129.83407 c 0,6.58711 -2.61644,11.59614 -7.27568,13.9249 -4.65924,2.32896 -10.97749,1.78705 -17.56811,-1.50651 C 212.37724,276.60988 140.6546,240.73266 105.3595,223.09028 98.770741,219.79673 92.45167,214.02135 87.792635,207.03466 83.1336,200.04818 80.516129,192.42262 80.516129,185.83551 Z"
               inkscape:connector-curvature="0" />
          </g>
          <path
             style="opacity:0.89704237;fill:#ffffff"
             inkscape:connector-curvature="0"
             d="m 229.28021,185.21651 c 5.07414,0 9.8475,2.40685 12.86451,6.48662 l 30.37141,41.06938 v 49.06156 c 0,6.58711 -2.61644,11.59614 -7.27568,13.9249 -4.65924,2.32896 -10.97749,1.78705 -17.56811,-1.50651 C 212.37724,276.60988 140.6546,240.73266 105.3595,223.09028 98.770741,219.79673 92.45167,214.02135 87.792635,207.03466 83.1336,200.04818 80.516129,192.42262 80.516129,185.83551 v -0.619 z"
             id="picture_mid" />
          <g
             style="opacity:0.89957682"
             id="frame_front">
            <path
               style="fill:url(#linearGradient-6-7)"
               id="use757"
               d="m 0.51612903,96 c 0,-6.5867 2.61747047,-11.595316 7.27650587,-13.92428 4.6590351,-2.328965 10.9781061,-1.786434 17.5668681,1.507948 35.295098,17.641552 107.017737,53.519602 142.312837,71.161142 6.59062,3.29439 12.90887,9.06832 17.56811,16.05521 4.65924,6.9869 7.27568,14.61328 7.27568,21.19998 v 129.83407 c 0,6.58711 -2.61644,11.59614 -7.27568,13.9249 -4.65924,2.32896 -10.97749,1.78705 -17.56811,-1.50651 C 132.37724,316.60988 60.654601,280.73266 25.359503,263.09028 18.770741,259.79673 12.45167,254.02135 7.7926349,247.03466 3.1335995,240.04818 0.51612903,232.42262 0.51612903,225.83551 Z"
               inkscape:connector-curvature="0" />
            <path
               style="fill:url(#radialGradient816);fill-opacity:0.6"
               id="use759"
               d="m 0.51612903,96 c 0,-6.5867 2.61747047,-11.595316 7.27650587,-13.92428 4.6590351,-2.328965 10.9781061,-1.786434 17.5668681,1.507948 35.295098,17.641552 107.017737,53.519602 142.312837,71.161142 6.59062,3.29439 12.90887,9.06832 17.56811,16.05521 4.65924,6.9869 7.27568,14.61328 7.27568,21.19998 v 129.83407 c 0,6.58711 -2.61644,11.59614 -7.27568,13.9249 -4.65924,2.32896 -10.97749,1.78705 -17.56811,-1.50651 C 132.37724,316.60988 60.654601,280.73266 25.359503,263.09028 18.770741,259.79673 12.45167,254.02135 7.7926349,247.03466 3.1335995,240.04818 0.51612903,232.42262 0.51612903,225.83551 Z"
               inkscape:connector-curvature="0" />
          </g>
          <path
             style="opacity:0.89704237;fill:#ffffff"
             inkscape:connector-curvature="0"
             d="M 25.359503,263.09028 C 18.770741,259.79673 12.45167,254.02135 7.7926349,247.03466 3.1335995,240.04818 0.51612903,232.42262 0.51612903,225.83551 L 0.51606692,189.45854 47.4199,185.75729 c 5.904384,-0.46595 11.58316,2.36788 14.760867,7.36598 L 144.56405,322.69919 C 106.86168,303.84689 54.063896,277.43827 25.359503,263.09028 Z"
             id="picture_front" />
        </g>
      </g>
    </g>
    <path
       inkscape:connector-curvature="0"
       id="path233-9"
       d="m 14.352172,15.800862 c 0.446933,-0.01722 0.766997,-0.428337 0.7998,-0.906844 0.309361,-4.512206 0.648332,-8.295569 0.648332,-8.295569 0.02819,-0.09669 -0.0656,-0.193389 -0.187597,-0.193389 H 2.1834977 c 0,0 -0.7229411,8.543648 -0.7229411,8.543648 -0.044758,0.383705 -0.1820746,0.705124 -0.60553886,0.853202 L 14.352172,15.80081 Z"
       style="color:#000000;display:block;visibility:visible;fill:url(#linearGradient9789);fill-opacity:1;fill-rule:nonzero;stroke:#3465a4;stroke-width:0.39071161;stroke-linecap:butt;stroke-linejoin:round;stroke-miterlimit:4;stroke-dasharray:none;stroke-dashoffset:0;stroke-opacity:1;marker:none;marker-start:none;marker-mid:none;marker-end:none" />
  </g>
</svg>
