<svg width="17" height="17" viewBox="0 0 17 17" fill="none" xmlns="http://www.w3.org/2000/svg">
<path d="M4.21044 16.0307C6.09193 16.0307 7.61717 14.5024 7.61717 12.6172C7.61717 10.7319 6.09193 9.20361 4.21044 9.20361C2.32896 9.20361 0.803711 10.7319 0.803711 12.6172C0.803711 14.5024 2.32896 16.0307 4.21044 16.0307Z" fill="url(#paint0_radial)"/>
<path fill-rule="evenodd" clip-rule="evenodd" d="M4.21011 9.29831C2.38076 9.29831 0.897783 10.7843 0.897783 12.6173C0.897783 14.4503 2.38076 15.9363 4.21011 15.9363C6.03946 15.9363 7.52245 14.4503 7.52245 12.6173C7.52245 10.7843 6.03946 9.29831 4.21011 9.29831ZM0.708984 12.6173C0.708984 10.6798 2.27649 9.10913 4.21011 9.10913C6.14373 9.10913 7.71125 10.6798 7.71125 12.6173C7.71125 14.5548 6.14373 16.1254 4.21011 16.1254C2.27649 16.1254 0.708984 14.5548 0.708984 12.6173Z" fill="#9C8C0A"/>
<path opacity="0.677215" fill-rule="evenodd" clip-rule="evenodd" d="M4.21003 9.46774C2.47403 9.46774 1.06673 10.8779 1.06673 12.6173C1.06673 14.3568 2.47403 15.767 4.21003 15.767C5.94602 15.767 7.35333 14.3568 7.35333 12.6173C7.35333 10.8779 5.94602 9.46774 4.21003 9.46774ZM0.87793 12.6173C0.87793 10.7734 2.36976 9.27856 4.21003 9.27856C6.05029 9.27856 7.54213 10.7734 7.54213 12.6173C7.54213 14.4613 6.05029 15.9561 4.21003 15.9561C2.36976 15.9561 0.87793 14.4613 0.87793 12.6173Z" fill="white"/>
<path opacity="0.36" d="M6.66828 12.9226C6.09878 13.911 5.43288 14.6233 4.24749 14.6233C3.09581 14.6233 2.25273 13.8023 1.72656 12.8892C2.20789 13.4673 2.91277 14.1314 4.19742 14.1314C5.73239 14.1314 6.00078 13.5814 6.66828 12.9226Z" fill="white"/>
<path d="M6.66828 12.7891C6.09878 13.7774 5.43288 14.4898 4.24749 14.4898C3.09581 14.4898 2.25273 13.6688 1.72656 12.7556C2.20789 13.3337 2.91277 13.9978 4.19742 13.9978C5.73239 13.9978 6.00078 13.4479 6.66828 12.7891Z" fill="url(#paint1_radial)"/>
<path opacity="0.36" d="M3.73517 11.5974C3.73517 12.0703 3.52277 12.4487 3.26317 12.4487C3.00358 12.4487 2.76758 12.0703 2.76758 11.5974C2.76758 11.1244 2.97998 10.7461 3.23957 10.7461C3.49917 10.7461 3.71157 11.1244 3.71157 11.5974H3.73517Z" fill="white"/>
<path opacity="0.36" d="M5.48891 11.5974C5.48891 12.0703 5.27651 12.4487 5.01692 12.4487C4.75732 12.4487 4.54492 12.0703 4.54492 11.5974C4.54492 11.1244 4.75732 10.7461 5.01692 10.7461C5.27651 10.7461 5.48891 11.1244 5.48891 11.5974Z" fill="white"/>
<path d="M3.73501 11.4792C3.73501 11.9522 3.52261 12.3305 3.26301 12.3305C3.00341 12.3305 2.79102 11.9522 2.79102 11.4792C2.79102 11.0063 3.00341 10.6279 3.26301 10.6279C3.52261 10.6279 3.73501 11.0063 3.73501 11.4792Z" fill="black"/>
<path d="M5.48891 11.4792C5.48891 11.9522 5.27651 12.3305 5.01692 12.3305C4.75732 12.3305 4.54492 11.9522 4.54492 11.4792C4.54492 11.0063 4.75732 10.6279 5.01692 10.6279C5.27651 10.6279 5.48891 11.0063 5.48891 11.4792Z" fill="black"/>
<g opacity="0.5">
<path fill-rule="evenodd" clip-rule="evenodd" d="M13.6562 15.5159C13.6562 15.5159 16.2397 15.6196 16.6041 14.5748C16.8485 13.8739 15.8345 13.4389 15.7482 12.965C15.6619 12.491 16.2587 12.6114 16.2587 12.6114L16.3563 12.807L16.7092 12.3857L16.0785 12.303L16.1987 12.5061C16.1987 12.5061 15.6168 12.4121 15.598 12.9198C15.5793 13.4276 16.6216 14.0746 16.2612 14.5748C15.9009 15.0751 14.1566 14.9209 14.1566 14.9209L13.6562 15.5159Z" fill="url(#paint2_linear)"/>
<path d="M12.5604 16.0765C14.0936 16.0765 15.3366 14.831 15.3366 13.2947C15.3366 11.7584 14.0936 10.5129 12.5604 10.5129C11.0271 10.5129 9.78418 11.7584 9.78418 13.2947C9.78418 14.831 11.0271 16.0765 12.5604 16.0765Z" fill="url(#paint3_radial)"/>
<path fill-rule="evenodd" clip-rule="evenodd" d="M12.5602 10.59C11.0694 10.59 9.86089 11.8009 9.86089 13.2946C9.86089 14.7884 11.0694 15.9993 12.5602 15.9993C14.0509 15.9993 15.2594 14.7884 15.2594 13.2946C15.2594 11.8009 14.0509 10.59 12.5602 10.59ZM9.70703 13.2946C9.70703 11.7157 10.9844 10.4358 12.5602 10.4358C14.1359 10.4358 15.4133 11.7157 15.4133 13.2946C15.4133 14.8735 14.1359 16.1535 12.5602 16.1535C10.9844 16.1535 9.70703 14.8735 9.70703 13.2946Z" fill="#A40000"/>
<path opacity="0.431818" fill-rule="evenodd" clip-rule="evenodd" d="M12.5601 10.7279C11.1454 10.7279 9.99858 11.877 9.99858 13.2946C9.99858 14.7121 11.1454 15.8612 12.5601 15.8612C13.9748 15.8612 15.1216 14.7121 15.1216 13.2946C15.1216 11.877 13.9748 10.7279 12.5601 10.7279ZM9.84473 13.2946C9.84473 11.7919 11.0604 10.5737 12.5601 10.5737C14.0598 10.5737 15.2755 11.7919 15.2755 13.2946C15.2755 14.7972 14.0598 16.0154 12.5601 16.0154C11.0604 16.0154 9.84473 14.7972 9.84473 13.2946Z" fill="url(#paint4_linear)"/>
<path opacity="0.5" fill-rule="evenodd" clip-rule="evenodd" d="M13.0121 11.9653C12.9472 12.0141 12.901 12.0826 12.8803 12.16L12.7317 12.1201C12.7613 12.0091 12.8275 11.9114 12.9197 11.842C13.0118 11.7727 13.1246 11.7357 13.2405 11.7363C13.3564 11.737 13.4693 11.7752 13.5617 11.8451C13.6541 11.9151 13.7211 12.013 13.7519 12.1241L13.6037 12.1654C13.5821 12.0874 13.5348 12.018 13.469 11.9681C13.4031 11.9183 13.3225 11.8909 13.2397 11.8905C13.1569 11.8901 13.0769 11.9165 13.0121 11.9653Z" fill="black"/>
<path opacity="0.5" fill-rule="evenodd" clip-rule="evenodd" d="M11.6664 11.9653C11.6015 12.0141 11.5553 12.0826 11.5346 12.16L11.386 12.1201C11.4156 12.0091 11.4818 11.9114 11.574 11.842C11.6661 11.7727 11.7789 11.7357 11.8948 11.7363C12.0107 11.737 12.1236 11.7752 12.216 11.8451C12.3084 11.9151 12.3754 12.013 12.4062 12.1241L12.258 12.1654C12.2364 12.0874 12.1891 12.018 12.1233 11.9681C12.0574 11.9183 11.9768 11.8909 11.894 11.8905C11.8112 11.8901 11.7312 11.9165 11.6664 11.9653Z" fill="black"/>
<path d="M10.2408 12.9771C10.0041 14.1437 10.9627 15.6237 12.5258 15.6237C14.1024 15.6237 15.0652 14.324 14.7905 12.9867L10.2408 12.9771Z" fill="url(#paint5_linear)"/>
<path opacity="0.181818" fill-rule="evenodd" clip-rule="evenodd" d="M12.6734 12.9746V15.7271H12.5195V12.9746H12.6734Z" fill="url(#paint6_linear)"/>
<path opacity="0.181818" fill-rule="evenodd" clip-rule="evenodd" d="M11.4419 12.9653V15.2875H11.2881V12.9653H11.4419Z" fill="url(#paint7_linear)"/>
<path opacity="0.181818" fill-rule="evenodd" clip-rule="evenodd" d="M13.9039 12.9763V15.2761H13.75V12.9763H13.9039Z" fill="url(#paint8_linear)"/>
<path fill-rule="evenodd" clip-rule="evenodd" d="M14.8278 12.824L14.843 12.8814C15.2066 14.2507 14.1483 15.7764 12.5575 15.7764C11.022 15.7764 9.92055 14.3011 10.2037 12.8956L10.2161 12.8339L14.8278 12.824ZM10.343 12.9878C10.1221 14.2835 11.1461 15.6222 12.5575 15.6222C14.0227 15.6222 15.0028 14.2371 14.7086 12.9784L10.343 12.9878Z" fill="#A40000"/>
<path opacity="0.5" fill-rule="evenodd" clip-rule="evenodd" d="M14.7487 10.4624C14.7294 10.466 14.7108 10.473 14.6939 10.483L13.7754 10.9878C13.7279 11.0151 13.6799 11.0645 13.6911 11.1181C13.7584 11.4397 14.0117 11.6598 14.3533 11.6983C14.4047 11.7041 14.4474 11.6555 14.4711 11.6094L14.9269 10.7062C14.9556 10.6493 14.9499 10.5811 14.9123 10.5296C14.8747 10.4782 14.8115 10.4522 14.7487 10.4624Z" fill="url(#paint9_linear)"/>
<path opacity="0.5" fill-rule="evenodd" clip-rule="evenodd" d="M14.7362 10.3862C14.8276 10.3714 14.9195 10.4092 14.9742 10.484C15.0289 10.5588 15.0371 10.658 14.9954 10.7408L14.5393 11.6446C14.5244 11.6736 14.5022 11.7063 14.4724 11.7318C14.4424 11.7575 14.3984 11.7809 14.3445 11.7748C13.9726 11.7329 13.6902 11.4906 13.6156 11.1339C13.604 11.0785 13.6246 11.0306 13.6491 10.9973C13.6736 10.9641 13.7065 10.9383 13.7369 10.9209L13.7382 10.9202L14.6557 10.4159C14.6801 10.4017 14.7067 10.3917 14.7344 10.3866L14.7362 10.3862ZM14.7617 10.5383C14.7515 10.5403 14.7417 10.544 14.7327 10.5493L14.7307 10.5505L13.8129 11.0549C13.7961 11.0647 13.7815 11.0772 13.773 11.0888C13.7688 11.0944 13.7671 11.0983 13.7665 11.1005C13.7662 11.1015 13.7662 11.102 13.7662 11.1021C13.8261 11.3885 14.0503 11.5864 14.3614 11.6216C14.3626 11.6213 14.3661 11.6201 14.3724 11.6146C14.3827 11.6058 14.3937 11.5913 14.4024 11.5743L14.858 10.6715C14.8581 10.6714 14.858 10.6715 14.858 10.6715C14.8737 10.6404 14.8706 10.6032 14.8501 10.5751C14.8298 10.5473 14.7957 10.5331 14.7617 10.5383Z" fill="#A40000"/>
<path fill-rule="evenodd" clip-rule="evenodd" d="M10.501 10.4817C10.5204 10.4853 10.5389 10.4923 10.5559 10.5023L11.4744 11.0071C11.5218 11.0344 11.5698 11.0838 11.5586 11.1374C11.4914 11.459 11.238 11.679 10.8964 11.7176C10.845 11.7234 10.8023 11.6748 10.7786 11.6287L10.3228 10.7255C10.2942 10.6686 10.2998 10.6003 10.3374 10.5489C10.375 10.4975 10.4382 10.4715 10.501 10.4817Z" fill="url(#paint10_linear)"/>
<path fill-rule="evenodd" clip-rule="evenodd" d="M10.4876 10.5576C10.4536 10.5524 10.4195 10.5666 10.3992 10.5944C10.3787 10.6224 10.3756 10.6596 10.3912 10.6907C10.3912 10.6907 10.3912 10.6907 10.3912 10.6907L10.8469 11.5936C10.8556 11.6106 10.8666 11.6251 10.8768 11.6339C10.8832 11.6393 10.8867 11.6406 10.8879 11.6409C11.199 11.6057 11.4232 11.4079 11.4831 11.1215C11.4831 11.1214 11.4831 11.1208 11.4828 11.1198C11.4821 11.1176 11.4805 11.1136 11.4763 11.108C11.4678 11.0964 11.4532 11.084 11.4364 11.0742L10.5186 10.5698L10.5165 10.5686C10.5076 10.5633 10.4978 10.5596 10.4876 10.5576ZM10.2751 10.5033C10.3298 10.4285 10.4217 10.3907 10.513 10.4055L10.5149 10.4058C10.5426 10.411 10.5692 10.4209 10.5935 10.4351L11.5124 10.9402C11.5428 10.9576 11.5757 10.9833 11.6002 11.0165C11.6247 11.0499 11.6452 11.0978 11.6337 11.1531C11.5591 11.5099 11.2767 11.7522 10.9048 11.7941C10.8509 11.8002 10.8069 11.7768 10.7769 11.7511C10.7471 11.7256 10.7249 11.6929 10.71 11.6639L10.7097 11.6634L10.2539 10.7602C10.2123 10.6774 10.2204 10.5781 10.2751 10.5033Z" fill="#A40000"/>
<path opacity="0.647727" fill-rule="evenodd" clip-rule="evenodd" d="M14.8554 10.6789C14.8554 10.679 14.8554 10.6789 14.8554 10.6789L14.4313 11.5287C14.405 11.5798 14.3444 11.6326 14.2632 11.6127C14.1648 11.5887 14.0595 11.5248 13.9742 11.448C13.8895 11.3717 13.8136 11.2726 13.7867 11.17C13.7866 11.1696 13.7865 11.1693 13.7864 11.1689C13.7821 11.1526 13.7715 11.1124 13.7952 11.0747C13.8059 11.0576 13.8198 11.0475 13.8269 11.0426C13.8313 11.0395 13.838 11.0353 13.8429 11.0322C13.8447 11.0311 13.8462 11.0302 13.8473 11.0295C13.8488 11.0285 13.8504 11.0275 13.8521 11.0266L14.7139 10.5589C14.7226 10.554 14.7324 10.5499 14.7415 10.5471C14.7505 10.5442 14.7664 10.54 14.7844 10.5409C14.8009 10.5416 14.8462 10.5494 14.8636 10.5977C14.8766 10.634 14.8617 10.6665 14.8554 10.6789ZM14.7514 10.6262L14.7905 10.6926C14.7894 10.6933 14.7886 10.6937 14.788 10.694L14.7514 10.6262ZM14.788 10.694C14.7884 10.6938 14.7883 10.694 14.7879 10.6941L14.788 10.694ZM14.6342 10.7775L13.9425 11.1529C13.964 11.2098 14.0121 11.2748 14.0771 11.3334C14.1475 11.3968 14.2275 11.4434 14.2927 11.4611C14.2932 11.4604 14.2937 11.4595 14.2943 11.4584L14.6342 10.7775Z" fill="url(#paint11_linear)"/>
</g>
<g opacity="0.5">
<path d="M3.8335 6.08621C5.42159 6.08621 6.70899 4.77623 6.70899 3.16029C6.70899 1.54435 5.42159 0.234375 3.8335 0.234375C2.24541 0.234375 0.958008 1.54435 0.958008 3.16029C0.958008 4.77623 2.24541 6.08621 3.8335 6.08621Z" fill="url(#paint12_radial)"/>
<path fill-rule="evenodd" clip-rule="evenodd" d="M3.8331 0.315472C2.28902 0.315472 1.03729 1.58915 1.03729 3.16031C1.03729 4.73147 2.28902 6.00515 3.8331 6.00515C5.37719 6.00515 6.62891 4.73147 6.62891 3.16031C6.62891 1.58915 5.37719 0.315472 3.8331 0.315472ZM0.87793 3.16031C0.87793 1.4996 2.201 0.15332 3.8331 0.15332C5.4652 0.15332 6.78827 1.4996 6.78827 3.16031C6.78827 4.82103 5.4652 6.1673 3.8331 6.1673C2.201 6.1673 0.87793 4.82103 0.87793 3.16031Z" fill="#9C8C0A"/>
<path opacity="0.677215" fill-rule="evenodd" clip-rule="evenodd" d="M3.833 0.460736C2.36772 0.460736 1.17987 1.66942 1.17987 3.1604C1.17987 4.65138 2.36772 5.86006 3.833 5.86006C5.29829 5.86006 6.48614 4.65138 6.48614 3.1604C6.48614 1.66942 5.29829 0.460736 3.833 0.460736ZM1.02051 3.1604C1.02051 1.57986 2.27971 0.298584 3.833 0.298584C5.3863 0.298584 6.6455 1.57986 6.6455 3.1604C6.6455 4.74094 5.3863 6.02222 3.833 6.02222C2.27971 6.02222 1.02051 4.74094 1.02051 3.1604Z" fill="white"/>
<g opacity="0.5">
<path opacity="0.36" d="M5.78742 3.93614C5.11697 4.63725 4.42475 5.08865 3.45485 4.83861C2.51254 4.59568 1.99257 3.73571 1.75098 2.86597C2.0252 3.44784 2.46455 4.14831 3.51567 4.41929C4.77159 4.74306 5.10496 4.34276 5.78742 3.93614Z" fill="white"/>
<path opacity="0.5" d="M5.81477 3.82505C5.14431 4.52617 4.4521 4.97757 3.4822 4.72752C2.53989 4.4846 2.01991 3.62462 1.77832 2.75488C2.05254 3.33676 2.49189 4.03722 3.54301 4.3082C4.79894 4.63198 5.13231 4.23168 5.81477 3.82505Z" fill="url(#paint13_radial)"/>
</g>
<path opacity="0.36" d="M4.913 2.28608C4.913 2.69146 4.73372 3.01576 4.5146 3.01576C4.29549 3.01576 4.11621 2.69146 4.11621 2.28608C4.11621 1.8807 4.29549 1.5564 4.5146 1.5564C4.73372 1.5564 4.913 1.8807 4.913 2.28608Z" fill="white"/>
<path opacity="0.5" d="M4.913 2.18476C4.913 2.59014 4.73372 2.91444 4.5146 2.91444C4.29549 2.91444 4.11621 2.59014 4.11621 2.18476C4.11621 1.77938 4.29549 1.45508 4.5146 1.45508C4.73372 1.45508 4.913 1.77938 4.913 2.18476Z" fill="black"/>
<path d="M2.50391 2.25702C2.72087 1.71471 3.27575 1.70047 3.47101 2.2384C3.12663 1.96062 2.80998 2.04062 2.50391 2.25702Z" fill="black"/>
</g>
<path fill-rule="evenodd" clip-rule="evenodd" d="M13.4152 0.272435C13.3149 0.221688 13.1968 0.221688 13.0965 0.272435C12.5309 0.558358 10.6209 1.52395 9.99973 1.83798C9.879 1.89903 9.80273 2.02379 9.80273 2.16027C9.80273 2.86466 9.80273 4.96448 9.80273 5.66886C9.80273 5.80534 9.879 5.93011 9.99973 5.99115C10.6209 6.3052 12.5309 7.2708 13.0965 7.55672C13.1968 7.60744 13.3149 7.60744 13.4152 7.55672C13.9808 7.2708 15.8908 6.3052 16.512 5.99115C16.6327 5.93011 16.709 5.80534 16.709 5.66886C16.709 4.96448 16.709 2.86466 16.709 2.16027C16.709 2.02379 16.6327 1.89903 16.512 1.83798C15.8908 1.52395 13.9808 0.558358 13.4152 0.272435Z" fill="#555753"/>
<path fill-rule="evenodd" clip-rule="evenodd" d="M13.1495 0.49468L10.1555 2.00472C10.1148 2.02526 10.0816 2.05654 10.0586 2.09413C10.0354 2.13198 10.0225 2.17622 10.0225 2.22243V5.60661C10.0225 5.65283 10.0354 5.69707 10.0586 5.73492C10.0816 5.77251 10.1148 5.80379 10.1555 5.82432L13.1495 7.33438C13.2168 7.36829 13.2959 7.36829 13.3631 7.33438L16.3572 5.82432C16.3979 5.80379 16.4311 5.77251 16.4541 5.73492C16.4773 5.69707 16.4902 5.65283 16.4902 5.60661V2.22243C16.4902 2.17622 16.4773 2.13198 16.4541 2.09413C16.4311 2.05654 16.3979 2.02525 16.3572 2.00472L13.3631 0.494686C13.2959 0.460753 13.2168 0.46076 13.1495 0.49468Z" fill="#2E3436"/>
<path fill-rule="evenodd" clip-rule="evenodd" d="M13.2412 0.676444L10.2472 2.18649C10.2472 2.1865 10.2472 2.18649 10.2472 2.18649C10.2412 2.1895 10.236 2.19423 10.2322 2.20049C10.2283 2.20681 10.226 2.21432 10.226 2.22243V5.60661C10.226 5.61473 10.2283 5.62224 10.2322 5.62856C10.236 5.63482 10.2412 5.63954 10.2472 5.64255L13.2412 7.1526C13.2412 7.1526 13.2412 7.1526 13.2412 7.1526C13.2508 7.15744 13.2619 7.15743 13.2714 7.15261L16.2655 5.64255C16.2655 5.64255 16.2655 5.64255 16.2655 5.64255C16.2715 5.63955 16.2767 5.63483 16.2805 5.62857C16.2844 5.62225 16.2866 5.61473 16.2866 5.60661V2.22243C16.2866 2.21432 16.2844 2.20681 16.2805 2.20049C16.2767 2.19422 16.2715 2.1895 16.2655 2.18649L13.2714 0.676439C13.2619 0.671621 13.2508 0.671614 13.2412 0.676444ZM16.3572 2.00472C16.3979 2.02525 16.4311 2.05654 16.4541 2.09413C16.4773 2.13198 16.4902 2.17622 16.4902 2.22243V5.60661C16.4902 5.65283 16.4773 5.69707 16.4541 5.73492C16.4311 5.77251 16.3979 5.80379 16.3572 5.82432L13.3631 7.33438C13.2959 7.36829 13.2168 7.36829 13.1495 7.33438L10.1555 5.82432C10.1148 5.80379 10.0816 5.77251 10.0586 5.73492C10.0354 5.69707 10.0225 5.65283 10.0225 5.60661V2.22243C10.0225 2.17622 10.0354 2.13198 10.0586 2.09413C10.0816 2.05654 10.1148 2.02526 10.1555 2.00472L13.1495 0.49468C13.2168 0.46076 13.2959 0.460753 13.3631 0.494686L16.3572 2.00472Z" fill="#888A85"/>
<path d="M13.0479 1.96469C13.0479 1.88073 13.0812 1.81689 13.1406 1.7872C13.2 1.75752 13.2805 1.76443 13.3645 1.80642C13.8144 2.03129 14.7286 2.4886 15.1785 2.71347C15.2625 2.75546 15.343 2.82906 15.4024 2.91811C15.4618 3.00717 15.4951 3.10438 15.4951 3.18834V4.84324C15.4951 4.92721 15.4618 4.99105 15.4024 5.02074C15.343 5.05042 15.2625 5.04351 15.1785 5.00153C14.7286 4.77665 13.8144 4.31935 13.3645 4.09448C13.2805 4.0525 13.2 3.97888 13.1406 3.88983C13.0812 3.80077 13.0479 3.70358 13.0479 3.61961V1.96469Z" fill="#729FCF"/>
<path d="M12.0283 2.47445C12.0283 2.3905 12.0617 2.32666 12.1211 2.29697C12.1805 2.26728 12.261 2.2742 12.345 2.31619C12.7949 2.54106 13.7091 2.99837 14.1589 3.22323C14.243 3.26523 14.3235 3.33882 14.3829 3.42788C14.4423 3.51694 14.4756 3.61414 14.4756 3.6981V5.35301C14.4756 5.43697 14.4423 5.50082 14.3829 5.5305C14.3235 5.56019 14.243 5.55328 14.1589 5.5113C13.7091 5.28642 12.7949 4.82912 12.345 4.60424C12.261 4.56226 12.1805 4.48865 12.1211 4.39959C12.0617 4.31054 12.0283 4.21334 12.0283 4.12938V2.47445Z" fill="#8AE234"/>
<path d="M11.0088 2.98446C11.0088 2.90051 11.0422 2.83666 11.1015 2.80698C11.1609 2.77729 11.2415 2.78421 11.3255 2.8262C11.7753 3.05106 12.6895 3.50838 13.1394 3.73324C13.2234 3.77524 13.304 3.84883 13.3633 3.93789C13.4227 4.02695 13.4561 4.12415 13.4561 4.20811V5.86302C13.4561 5.94698 13.4227 6.01083 13.3633 6.04051C13.304 6.0702 13.2234 6.06329 13.1394 6.02131C12.6895 5.79643 11.7753 5.33913 11.3255 5.11425C11.2415 5.07227 11.1609 4.99866 11.1015 4.9096C11.0422 4.82055 11.0088 4.72335 11.0088 4.63939V2.98446Z" fill="#EF2929"/>
<defs>
<radialGradient id="paint0_radial" cx="0" cy="0" r="1" gradientUnits="userSpaceOnUse" gradientTransform="translate(3.49283 11.3216) scale(3.50113 3.50816)">
<stop stop-color="#FFFCDE"/>
<stop offset="0.64486" stop-color="#F6E76A"/>
<stop offset="1" stop-color="#FFB738"/>
</radialGradient>
<radialGradient id="paint1_radial" cx="0" cy="0" r="1" gradientUnits="userSpaceOnUse" gradientTransform="translate(4.31808 15.0792) scale(3.71866 3.72613)">
<stop stop-color="#777777"/>
<stop offset="1"/>
</radialGradient>
<linearGradient id="paint2_linear" x1="15.6581" y1="15.1766" x2="16.562" y2="13.1469" gradientUnits="userSpaceOnUse">
<stop stop-color="#730000"/>
<stop offset="1" stop-color="#FF0202"/>
</linearGradient>
<radialGradient id="paint3_radial" cx="0" cy="0" r="1" gradientUnits="userSpaceOnUse" gradientTransform="translate(12.3836 12.2319) scale(2.20038 2.20479)">
<stop stop-color="#FFA107"/>
<stop offset="1" stop-color="#CC0000"/>
</radialGradient>
<linearGradient id="paint4_linear" x1="11.8448" y1="11.223" x2="14.6894" y2="19.1781" gradientUnits="userSpaceOnUse">
<stop stop-color="#F2D565"/>
<stop offset="1" stop-color="#F2D565" stop-opacity="0"/>
</linearGradient>
<linearGradient id="paint5_linear" x1="10.212" y1="14.3004" x2="14.8276" y2="14.3004" gradientUnits="userSpaceOnUse">
<stop stop-color="#CCCCCC"/>
<stop offset="0.345794" stop-color="white"/>
<stop offset="0.724867" stop-color="white"/>
<stop offset="1" stop-color="#CECECE"/>
</linearGradient>
<linearGradient id="paint6_linear" x1="12.5965" y1="14.3508" x2="12.7503" y2="14.3508" gradientUnits="userSpaceOnUse">
<stop/>
<stop offset="1" stop-opacity="0"/>
</linearGradient>
<linearGradient id="paint7_linear" x1="11.365" y1="14.1264" x2="11.5189" y2="14.1264" gradientUnits="userSpaceOnUse">
<stop/>
<stop offset="1" stop-opacity="0"/>
</linearGradient>
<linearGradient id="paint8_linear" x1="13.8269" y1="14.1262" x2="13.9808" y2="14.1262" gradientUnits="userSpaceOnUse">
<stop/>
<stop offset="1" stop-opacity="0"/>
</linearGradient>
<linearGradient id="paint9_linear" x1="14.1318" y1="10.8675" x2="14.4072" y2="11.1849" gradientUnits="userSpaceOnUse">
<stop stop-color="#CC0000"/>
<stop offset="0.275862" stop-color="#C84A00"/>
<stop offset="1" stop-color="#BE0000"/>
</linearGradient>
<linearGradient id="paint10_linear" x1="11.0355" y1="10.9061" x2="10.7904" y2="11.2236" gradientUnits="userSpaceOnUse">
<stop stop-color="#CC0000"/>
<stop offset="0.275862" stop-color="#C84A00"/>
<stop offset="1" stop-color="#BE0000"/>
</linearGradient>
<linearGradient id="paint11_linear" x1="14.3742" y1="10.6801" x2="14.3243" y2="10.9728" gradientUnits="userSpaceOnUse">
<stop stop-color="#FFD93C"/>
<stop offset="1" stop-color="white" stop-opacity="0"/>
</linearGradient>
<radialGradient id="paint12_radial" cx="0" cy="0" r="1" gradientUnits="userSpaceOnUse" gradientTransform="translate(3.22779 2.04978) scale(2.95517 3.00699)">
<stop stop-color="#FFFCDE"/>
<stop offset="0.64486" stop-color="#F6E76A"/>
<stop offset="1" stop-color="#FFB738"/>
</radialGradient>
<radialGradient id="paint13_radial" cx="0" cy="0" r="1" gradientUnits="userSpaceOnUse" gradientTransform="translate(3.41801 5.2322) rotate(14.4561) scale(3.14213 3.19042)">
<stop stop-color="#777777"/>
<stop offset="1"/>
</radialGradient>
</defs>
</svg>
