<svg width="442" height="470" viewBox="0 0 442 470" fill="none" xmlns="http://www.w3.org/2000/svg">
<path fill-rule="evenodd" clip-rule="evenodd" d="M231.148 2.43033C224.742 -0.810111 217.202 -0.810111 210.794 2.43033C174.68 20.688 52.7173 82.3465 13.0505 102.399C5.34105 106.297 0.471191 114.264 0.471191 122.979C0.471191 167.958 0.471191 302.042 0.471191 347.021C0.471191 355.736 5.34105 363.703 13.0505 367.601C52.7173 387.654 174.68 449.313 210.794 467.571C217.202 470.81 224.742 470.81 231.148 467.571C267.262 449.313 389.226 387.654 428.893 367.601C436.601 363.703 441.471 355.736 441.471 347.021C441.471 302.042 441.471 167.958 441.471 122.979C441.471 114.264 436.601 106.297 428.893 102.399C389.226 82.3465 267.262 20.688 231.148 2.43033Z" fill="#555753"/>
<path d="M217.079 22.4283L217.079 22.4279C219.532 21.1907 222.411 21.1907 224.862 22.4279L224.864 22.4287L416.05 118.852C416.05 118.852 416.05 118.852 416.051 118.852C417.54 119.604 418.766 120.754 419.623 122.154C420.487 123.564 420.971 125.216 420.971 126.951V343.049C420.971 344.784 420.487 346.436 419.623 347.846C418.765 349.246 417.54 350.396 416.051 351.147C416.051 351.147 416.051 351.147 416.051 351.147L224.863 447.572L224.863 447.573C222.412 448.809 219.531 448.809 217.078 447.572C217.078 447.572 217.078 447.572 217.078 447.572L25.8919 351.147C24.402 350.396 23.177 349.246 22.3193 347.846C21.4553 346.436 20.9712 344.784 20.9712 343.049V126.951C20.9712 125.216 21.4552 123.564 22.3192 122.154C23.177 120.754 24.4023 119.604 25.8922 118.852L217.079 22.4283Z" fill="#2E3436" stroke="#888A85" stroke-width="13"/>
<path d="M207.699 110.493C207.699 105.132 209.829 101.055 213.621 99.1597C217.413 97.2641 222.557 97.7056 227.919 100.387C256.647 114.746 315.023 143.948 343.751 158.307C349.115 160.988 354.258 165.687 358.05 171.374C361.842 177.061 363.972 183.268 363.972 188.629V294.304C363.972 299.665 361.842 303.742 358.05 305.638C354.258 307.533 349.115 307.092 343.751 304.412C315.023 290.052 256.647 260.851 227.919 246.491C222.557 243.811 217.413 239.11 213.621 233.423C209.829 227.737 207.699 221.53 207.699 216.169V110.493Z" fill="#729FCF"/>
<path d="M142.585 143.05C142.585 137.689 144.715 133.612 148.507 131.717C152.3 129.821 157.443 130.263 162.806 132.944C191.533 147.303 249.91 176.505 278.637 190.863C284.001 193.545 289.144 198.244 292.936 203.931C296.728 209.618 298.858 215.825 298.858 221.186V326.861C298.858 332.222 296.728 336.299 292.936 338.195C289.144 340.09 284.001 339.649 278.637 336.969C249.91 322.609 191.533 293.408 162.806 279.048C157.443 276.367 152.3 271.667 148.507 265.98C144.715 260.294 142.585 254.087 142.585 248.726V143.05Z" fill="#8AE234"/>
<path d="M77.4712 175.607C77.4712 170.246 79.6016 166.169 83.3937 164.273C87.1858 162.378 92.329 162.819 97.6917 165.501C126.419 179.86 184.796 209.061 213.523 223.42C218.887 226.102 224.03 230.801 227.822 236.488C231.615 242.175 233.744 248.382 233.744 253.743V359.418C233.744 364.779 231.615 368.856 227.822 370.752C224.03 372.647 218.887 372.206 213.523 369.525C184.796 355.166 126.419 325.964 97.6917 311.605C92.329 308.924 87.1858 304.224 83.3937 298.537C79.6016 292.851 77.4712 286.644 77.4712 281.283V175.607Z" fill="#EF2929"/>
</svg>
