<svg width="17" height="16" viewBox="0 0 17 16" fill="none" xmlns="http://www.w3.org/2000/svg">
<path d="M3.99023 8.77759C2.05723 8.77759 0.490234 10.3452 0.490234 12.279C0.490234 14.2127 2.05723 15.7803 3.99023 15.7803C5.92322 15.7803 7.49023 14.2127 7.49023 12.279C7.49023 10.3452 5.92322 8.77759 3.99023 8.77759ZM2.75586 10.6377C3.12305 10.6377 3.49023 10.8608 3.49023 11.2942C2.74023 11.1249 1.92773 12.161 1.99023 11.2942C2.02143 10.8608 2.38868 10.6377 2.75586 10.6377ZM5.22461 10.6377C5.5918 10.6377 5.95898 10.8608 5.99023 11.2942C6.05273 12.161 5.24023 11.1249 4.49023 11.2942C4.49023 10.8608 4.85743 10.6377 5.22461 10.6377ZM1.49023 12.7948C2.49023 13.4467 5.48377 13.4467 6.50586 12.7948L6.49023 13.0606C6.47203 13.2755 5.99026 14.7486 3.99026 14.7643C1.99026 14.7803 1.49023 13.3738 1.49023 13.1075V12.7948Z" fill="url(#paint0_linear)"/>
<path opacity="0.4" d="M13.4902 9.77783C11.8334 9.77783 10.4902 11.1215 10.4902 12.779C10.4902 14.4365 11.8334 15.7802 13.4902 15.7802C15.1471 15.7802 16.4902 14.4365 16.4902 12.779C16.4902 11.1215 15.1471 9.77783 13.4902 9.77783ZM11.0125 11.5062C12.6894 11.4902 14.429 11.5062 15.9679 11.5062C15.9679 12.2103 15.4323 12.779 14.7759 12.779C14.2294 12.779 13.7763 12.3801 13.6375 11.8411H13.3429C13.2042 12.3802 12.7511 12.779 12.2045 12.779C11.5481 12.779 11.0125 12.2102 11.0125 11.5062ZM11.3474 13.2346C11.6539 13.6953 12.3053 14.0652 13.4902 14.0652C14.5412 14.0652 15.2949 13.7435 15.6331 13.2346V13.449C15.6331 13.7409 15.274 14.4806 13.4902 14.4806C11.827 14.4806 11.3474 13.6773 11.3474 13.449V13.2346Z" fill="url(#paint1_linear)"/>
<path opacity="0.5" d="M3.55909 0.711914C2.85102 0.711914 2.19722 0.958018 1.68409 1.36838C1.19816 1.17811 0.786897 0.961422 0.532297 0.738632L0.492106 0.993225C0.477806 1.10947 0.53641 1.64198 0.98765 2.17239C0.71691 2.62326 0.559061 3.14877 0.559061 3.71309C0.559061 5.37064 1.90221 6.71426 3.55906 6.71426C5.21591 6.71426 6.55906 5.37064 6.55906 3.71309C6.55906 3.15977 6.40499 2.64427 6.1439 2.1991C6.57719 1.67679 6.65351 1.1746 6.63941 1.06035L6.59922 0.805756C6.35121 1.02265 5.95695 1.22201 5.48762 1.40858C5.48462 1.39858 5.47662 1.40858 5.47422 1.40858C4.95347 0.973315 4.29051 0.711914 3.55897 0.711914H3.55909ZM2.70194 2.4269C2.94122 2.4269 3.1439 2.62957 3.1439 2.86896V3.28432C3.1439 3.52372 2.94122 3.71309 2.70194 3.71309C2.46265 3.71309 2.27339 3.52372 2.27339 3.28432V2.86896C2.27339 2.62957 2.46265 2.4269 2.70194 2.4269ZM4.41624 2.4269C4.65553 2.4269 4.8448 2.62957 4.8448 2.86896V3.28432C4.8448 3.52372 4.65553 3.71309 4.41624 3.71309C4.17696 3.71309 3.98765 3.52372 3.98765 3.28432V2.86896C3.98765 2.62957 4.17696 2.4269 4.41624 2.4269ZM5.27339 4.56113C5.26089 4.70859 4.87691 5.84882 3.55909 5.85143C2.36398 5.86143 1.8448 4.7546 1.8448 4.57182L5.27339 4.56113Z" fill="url(#paint2_linear)"/>
<path fill-rule="evenodd" clip-rule="evenodd" d="M13.1518 0.750524C13.0501 0.699044 12.9304 0.699044 12.8287 0.750524C12.2554 1.04057 10.3195 2.02011 9.68991 2.33868C9.56753 2.40061 9.49023 2.52717 9.49023 2.66562C9.49023 3.38018 9.49023 5.51032 9.49023 6.22487C9.49023 6.36332 9.56753 6.4899 9.68991 6.55181C10.3195 6.8704 12.2554 7.84994 12.8287 8.13999C12.9304 8.19144 13.0501 8.19144 13.1518 8.13999C13.725 7.84994 15.661 6.8704 16.2906 6.55181C16.4129 6.4899 16.4902 6.36332 16.4902 6.22487C16.4902 5.51032 16.4902 3.38018 16.4902 2.66562C16.4902 2.52717 16.4129 2.40061 16.2906 2.33868C15.661 2.02011 13.725 1.04057 13.1518 0.750524Z" fill="#BEBEBE"/>
<path fill-rule="evenodd" clip-rule="evenodd" d="M12.8779 0.848536L9.73905 2.4367C9.69638 2.45829 9.6616 2.4912 9.63746 2.53073C9.61315 2.57053 9.59961 2.61706 9.59961 2.66566V6.22491C9.59961 6.27352 9.61315 6.32005 9.63746 6.35986C9.6616 6.39939 9.69638 6.43229 9.73905 6.45389L12.8778 8.04206C12.9483 8.07772 13.0313 8.07773 13.1018 8.04206L16.2406 6.45389C16.2832 6.4323 16.318 6.39939 16.3422 6.35986C16.3665 6.32005 16.38 6.27352 16.38 6.22491V2.66566C16.38 2.61706 16.3665 2.57053 16.3422 2.53073C16.318 2.4912 16.2832 2.45829 16.2406 2.43669L13.1018 0.848542C13.0313 0.812853 12.9483 0.81286 12.8779 0.848536Z" fill="#BEBEBE"/>
<path opacity="0.9" d="M13.0039 2.5138C13.0039 2.43517 13.0352 2.37538 13.0908 2.34758C13.1464 2.31977 13.2218 2.32625 13.3005 2.36558C13.7218 2.57618 14.5781 3.0045 14.9994 3.2151C15.0781 3.25443 15.1535 3.32336 15.2092 3.40677C15.2648 3.49018 15.296 3.58122 15.296 3.65985V5.20982C15.296 5.28845 15.2648 5.34825 15.2092 5.37605C15.1535 5.40386 15.0781 5.39739 14.9994 5.35807C14.5781 5.14745 13.7218 4.71915 13.3005 4.50853C13.2218 4.46921 13.1464 4.40027 13.0908 4.31686C13.0352 4.23346 13.0039 4.14242 13.0039 4.06378V2.5138Z" fill="#7F7F7F"/>
<path opacity="0.9" d="M11.8369 3.09706C11.8369 3.01842 11.8682 2.95863 11.9238 2.93083C11.9794 2.90302 12.0548 2.9095 12.1335 2.94883C12.5548 3.15943 13.4111 3.58775 13.8324 3.79835C13.9111 3.83768 13.9865 3.90661 14.0422 3.99002C14.0978 4.07343 14.129 4.16447 14.129 4.24311V5.79307C14.129 5.87171 14.0978 5.9315 14.0422 5.95931C13.9865 5.98711 13.9111 5.98064 13.8324 5.94132C13.4111 5.7307 12.5548 5.3024 12.1335 5.09178C12.0548 5.05247 11.9794 4.98352 11.9238 4.90011C11.8682 4.81671 11.8369 4.72567 11.8369 4.64704V3.09706Z" fill="#7F7F7F"/>
<path opacity="0.9" d="M10.6709 3.68055C10.6709 3.60192 10.7021 3.54213 10.7578 3.51432C10.8134 3.48652 10.8888 3.493 10.9675 3.53233C11.3888 3.74293 12.2451 4.17124 12.6664 4.38185C12.7451 4.42118 12.8205 4.49011 12.8761 4.57352C12.9318 4.65693 12.963 4.74797 12.963 4.8266V6.37657C12.963 6.4552 12.9318 6.515 12.8761 6.5428C12.8205 6.5706 12.7451 6.56414 12.6664 6.52482C12.2451 6.3142 11.3888 5.8859 10.9675 5.67528C10.8888 5.63596 10.8134 5.56702 10.7578 5.48361C10.7021 5.4002 10.6709 5.30917 10.6709 5.23053V3.68055Z" fill="#7F7F7F"/>
<defs>
<linearGradient id="paint0_linear" x1="876.762" y1="346.616" x2="883.762" y2="346.616" gradientUnits="userSpaceOnUse">
<stop stop-color="#BEBEBE"/>
</linearGradient>
<linearGradient id="paint1_linear" x1="886.762" y1="347.116" x2="892.762" y2="347.116" gradientUnits="userSpaceOnUse">
<stop stop-color="#BEBEBE"/>
</linearGradient>
<linearGradient id="paint2_linear" x1="876.759" y1="338.05" x2="882.91" y2="338.05" gradientUnits="userSpaceOnUse">
<stop stop-color="#BEBEBE"/>
</linearGradient>
</defs>
</svg>
