<?xml version="1.0" encoding="UTF-8" standalone="no"?>
<svg
   xmlns:osb="http://www.openswatchbook.org/uri/2009/osb"
   xmlns:dc="http://purl.org/dc/elements/1.1/"
   xmlns:cc="http://creativecommons.org/ns#"
   xmlns:rdf="http://www.w3.org/1999/02/22-rdf-syntax-ns#"
   xmlns:svg="http://www.w3.org/2000/svg"
   xmlns="http://www.w3.org/2000/svg"
   xmlns:xlink="http://www.w3.org/1999/xlink"
   xmlns:sodipodi="http://sodipodi.sourceforge.net/DTD/sodipodi-0.dtd"
   xmlns:inkscape="http://www.inkscape.org/namespaces/inkscape"
   viewBox="0 0 15.999999 16"
   id="svg7384"
   height="16"
   width="16"
   version="1.1"
   inkscape:version="0.91 r13725"
   sodipodi:docname="gimp-visible.svg">
  <sodipodi:namedview
     pagecolor="#ffffff"
     bordercolor="#666666"
     borderopacity="1"
     objecttolerance="10"
     gridtolerance="10"
     guidetolerance="10"
     inkscape:pageopacity="0"
     inkscape:pageshadow="2"
     inkscape:window-width="640"
     inkscape:window-height="480"
     id="namedview1508"
     showgrid="false"
     inkscape:zoom="14.75"
     inkscape:cx="-214.7208"
     inkscape:cy="89.87964"
     inkscape:window-x="0"
     inkscape:window-y="27"
     inkscape:window-maximized="0"
     inkscape:current-layer="svg7384" />
  <metadata
     id="metadata90">
    <rdf:RDF>
      <cc:Work
         rdf:about="">
        <dc:format>image/svg+xml</dc:format>
        <dc:type
           rdf:resource="http://purl.org/dc/dcmitype/StillImage" />
        <dc:title />
        <dc:contributor>
          <cc:Agent>
            <dc:title>Barbara Muraus, Jakub Steiner, Klaus Staedtler</dc:title>
          </cc:Agent>
        </dc:contributor>
        <dc:description>Images originally created as the &quot;Art Libre&quot; icon set. Extended and adopted for GIMP</dc:description>
      </cc:Work>
    </rdf:RDF>
  </metadata>
  <defs
     id="defs7386">
    <linearGradient
       osb:paint="solid"
       id="linearGradient8074">
      <stop
         id="stop8072"
         offset="0"
         style="stop-color:#be00be;stop-opacity:1;" />
    </linearGradient>
    <linearGradient
       osb:paint="solid"
       id="linearGradient7561">
      <stop
         id="stop7558"
         offset="0"
         style="stop-color:#a5a5a5;stop-opacity:1;" />
    </linearGradient>
    <linearGradient
       osb:paint="solid"
       id="linearGradient7548">
      <stop
         id="stop7546"
         offset="0"
         style="stop-color:#ebebeb;stop-opacity:1;" />
    </linearGradient>
    <linearGradient
       osb:paint="solid"
       id="linearGradient7542">
      <stop
         id="stop7538"
         offset="0"
         style="stop-color:#c9c9c9;stop-opacity:1;" />
    </linearGradient>
    <linearGradient
       gradientTransform="matrix(0,-735328.32,170712.69,0,2464326300,577972450)"
       osb:paint="solid"
       id="linearGradient19282">
      <stop
         id="stop19284"
         offset="0"
         style="stop-color:#b4b4b4;stop-opacity:1;" />
    </linearGradient>
    <linearGradient
       gradientTransform="matrix(0.34682586,0,0,0.30620888,26.64813,342.03851)"
       osb:paint="solid"
       id="linearGradient19282-4">
      <stop
         id="stop19284-0"
         offset="0"
         style="stop-color:#bebebe;stop-opacity:1;" />
    </linearGradient>
    <linearGradient
       gradientTransform="translate(403.721,85.791047)"
       gradientUnits="userSpaceOnUse"
       y2="210"
       x2="-49"
       y1="210"
       x1="-55"
       id="linearGradient7142"
       xlink:href="#linearGradient19282-4" />
    <linearGradient
       gradientTransform="translate(403.721,85.791047)"
       gradientUnits="userSpaceOnUse"
       y2="210"
       x2="-44"
       y1="210"
       x1="-60"
       id="linearGradient7144"
       xlink:href="#linearGradient19282-4" />
  </defs>
  <g
     transform="translate(54.09015,81.24019)"
     style="display:inline"
     id="stock">
    <g
       id="gimp-visible"
       style="display:inline"
       transform="translate(-235.09035,-500.24019)">
      <path
         style="fill:url(#linearGradient7142);fill-opacity:1;stroke:none"
         d="m -52,207 c -1.656854,0 -3,1.34315 -3,3 0,1.65685 1.343146,3 3,3 1.656854,0 3,-1.34315 3,-3 0,-1.65685 -1.343146,-3 -3,-3 z m 0,1.53125 c 0.787268,0 1.4375,0.65408 1.4375,1.46875 0,0.81467 -0.650232,1.5 -1.4375,1.5 -0.787268,0 -1.4375,-0.68533 -1.4375,-1.5 0,-0.81467 0.650232,-1.46875 1.4375,-1.46875 z"
         transform="translate(241.0002,217)"
         id="path11920"
         inkscape:connector-curvature="0" />
      <path
         style="color:#000000;font-style:normal;font-variant:normal;font-weight:normal;font-stretch:normal;font-size:medium;line-height:normal;font-family:sans-serif;font-variant-ligatures:normal;font-variant-position:normal;font-variant-caps:normal;font-variant-numeric:normal;font-variant-alternates:normal;font-feature-settings:normal;text-indent:0;text-align:start;text-decoration:none;text-decoration-line:none;text-decoration-style:solid;text-decoration-color:#000000;letter-spacing:normal;word-spacing:normal;text-transform:none;writing-mode:lr-tb;direction:ltr;text-orientation:mixed;dominant-baseline:auto;baseline-shift:baseline;text-anchor:start;white-space:normal;shape-padding:0;clip-rule:nonzero;display:inline;overflow:visible;visibility:visible;opacity:1;isolation:auto;mix-blend-mode:normal;color-interpolation:sRGB;color-interpolation-filters:linearRGB;solid-color:#000000;solid-opacity:1;vector-effect:none;fill:#bebebe;fill-opacity:1;fill-rule:nonzero;stroke:none;stroke-width:0.32521036;stroke-linecap:round;stroke-linejoin:miter;stroke-miterlimit:4;stroke-dasharray:none;stroke-dashoffset:0;stroke-opacity:1;color-rendering:auto;image-rendering:auto;shape-rendering:auto;text-rendering:auto;enable-background:accumulate"
         d="m 2.1171961,0.91088973 c -0.7367311,0 -1.45048247,0.46772247 -1.95263864,1.32857767 -0.0541743,0.093105 -0.0267774,0.1984652 0.0418158,0.2651863 A 0.2710358,0.2710358 0 0 1 0.24871836,2.3373905 C 0.72282381,1.5246231 1.4057457,1.0707425 2.1171961,1.0707425 c 0.7114503,0 1.3943724,0.4538806 1.8684776,1.266648 a 0.2710358,0.2710358 0 0 1 0.041816,0.1746736 C 4.0995445,2.4457514 4.1254912,2.3347129 4.0698347,2.2394674 3.5676786,1.378613 2.8539272,0.91088897 2.1171961,0.91088973 Z M 1.8864153,1.6371083 c -0.098326,0.019683 -0.1970315,0.050797 -0.2948278,0.096864 A 0.29810954,0.29810954 0 0 0 1.5206594,1.9245257 0.29810954,0.29810954 0 0 0 1.8144286,2.225176 0.29810954,0.29810954 0 0 0 2.1166668,1.9319361 L 1.8186631,1.9271723 H 2.1166668 A 0.29810954,0.29810954 0 0 0 1.8864153,1.6371083 Z m 1.0977968,0.3197056 c 0.00615,0.042 0.012701,0.083857 0.012704,0.1275646 C 2.9968886,2.5705152 2.6028036,2.9646002 2.1166668,2.9646273 1.63053,2.9646002 1.236445,2.5705152 1.2364179,2.0843785 c 2.4e-6,-0.043528 0.0066,-0.0852 0.012703,-0.1270353 -0.18854,0.1584611 -0.36920697,0.3721971 -0.53248913,0.6521146 A 0.2710358,0.2710358 0 0 1 0.53560644,2.7486673 C 1.4580301,3.509987 2.7749417,3.5097845 3.6971977,2.748138 A 0.2710358,0.2710358 0 0 1 3.5177605,2.6094578 C 3.3542168,2.3290918 3.1730813,2.1153437 2.9842121,1.9568139 Z"
         id="path817-3-9"
         inkscape:connector-curvature="0" />
      <g
         id="g4996">
        <path
           sodipodi:nodetypes="cc"
           inkscape:connector-curvature="0"
           id="path817-3-9-1"
           d="m 0.35394082,2.350572 c 0.94916018,-1.62716237 2.57629178,-1.62716237 3.52545168,0"
           style="display:inline;fill:none;stroke:#bebebe;stroke-width:0.44011807;stroke-linecap:round;stroke-linejoin:miter;stroke-miterlimit:4;stroke-dasharray:none;stroke-opacity:1" />
        <path
           sodipodi:nodetypes="cc"
           inkscape:connector-curvature="0"
           id="path817-3-9-9"
           d="m 3.8793927,2.350572 c -0.9491601,1.084751 -2.5762917,1.084751 -3.52545188,0"
           style="display:inline;fill:none;stroke:#bebebe;stroke-width:0.32521039;stroke-linecap:round;stroke-linejoin:miter;stroke-miterlimit:4;stroke-dasharray:none;stroke-opacity:1" />
      </g>
    </g>
  </g>
</svg>
