<svg width="481" height="512" viewBox="0 0 481 512" fill="none" xmlns="http://www.w3.org/2000/svg">
<path fill-rule="evenodd" clip-rule="evenodd" d="M251.547 2.64751C244.575 -0.882504 236.368 -0.882504 229.393 2.64751C190.085 22.5367 57.3372 89.7052 14.1625 111.549C5.77123 115.796 0.470703 124.475 0.470703 133.968C0.470703 182.966 0.470703 329.034 0.470703 378.031C0.470703 387.525 5.77123 396.204 14.1625 400.45C57.3372 422.296 190.085 489.465 229.393 509.354C236.368 512.882 244.575 512.882 251.547 509.354C290.855 489.465 423.606 422.296 466.78 400.45C475.17 396.204 480.471 387.525 480.471 378.031C480.471 329.034 480.471 182.966 480.471 133.968C480.471 124.475 475.17 115.796 466.78 111.549C423.606 89.7052 290.855 22.5367 251.547 2.64751Z" fill="#BEBEBE"/>
<path fill-rule="evenodd" clip-rule="evenodd" d="M232.794 9.36524L17.5618 118.268C14.6358 119.748 12.2511 122.005 10.5956 124.716C8.92856 127.445 8 130.636 8 133.968V378.031C8 381.364 8.92857 384.555 10.5956 387.285C12.2511 389.995 14.6356 392.251 17.5619 393.732L232.793 502.636C237.627 505.081 243.315 505.081 248.148 502.636L463.381 393.732C466.306 392.252 468.691 389.995 470.346 387.285C472.013 384.555 472.942 381.364 472.942 378.031V133.968C472.942 130.636 472.013 127.445 470.346 124.716C468.691 122.005 466.306 119.748 463.38 118.267L248.148 9.36567C243.314 6.91847 237.627 6.91894 232.794 9.36524Z" fill="#BEBEBE"/>
<path opacity="0.9" d="M241.471 123.565C241.471 118.173 243.613 114.073 247.427 112.166C251.241 110.26 256.414 110.704 261.808 113.401C290.701 127.842 349.413 157.212 378.306 171.654C383.701 174.351 388.873 179.077 392.687 184.797C396.502 190.516 398.643 196.759 398.643 202.151V308.434C398.643 313.827 396.502 317.927 392.687 319.833C388.873 321.74 383.701 321.296 378.306 318.6C349.413 304.158 290.701 274.788 261.808 260.346C256.414 257.65 251.241 252.922 247.427 247.203C243.613 241.484 241.471 235.241 241.471 229.849V123.565Z" fill="#555555"/>
<path opacity="0.9" d="M161.471 163.565C161.471 158.173 163.613 154.073 167.427 152.166C171.241 150.26 176.414 150.704 181.808 153.401C210.701 167.842 269.413 197.212 298.306 211.654C303.701 214.351 308.873 219.077 312.687 224.797C316.502 230.516 318.643 236.759 318.643 242.151V348.434C318.643 353.827 316.502 357.927 312.687 359.833C308.873 361.74 303.701 361.296 298.306 358.6C269.413 344.158 210.701 314.788 181.808 300.346C176.414 297.65 171.241 292.922 167.427 287.203C163.613 281.484 161.471 275.241 161.471 269.849V163.565Z" fill="#555555"/>
<path opacity="0.9" d="M81.4707 203.565C81.4707 198.173 83.6134 194.073 87.4273 192.166C91.2412 190.26 96.4141 190.704 101.808 193.401C130.701 207.842 189.413 237.212 218.306 251.654C223.701 254.351 228.873 259.077 232.687 264.797C236.502 270.516 238.643 276.759 238.643 282.151V388.434C238.643 393.827 236.502 397.927 232.687 399.833C228.873 401.74 223.701 401.296 218.306 398.6C189.413 384.158 130.701 354.788 101.808 340.346C96.4141 337.65 91.2412 332.922 87.4273 327.203C83.6134 321.484 81.4707 315.241 81.4707 309.849V203.565Z" fill="#555555"/>
</svg>
