<svg width="17" height="17" viewBox="0 0 17 17" fill="none" xmlns="http://www.w3.org/2000/svg">
<path d="M1.20312 0.780273C0.913995 0.780273 0.671875 1.02239 0.671875 1.31152V16.249C0.671875 16.5475 0.904515 16.7803 1.20312 16.7803H16.1406C16.4392 16.7803 16.6719 16.5476 16.6719 16.249V6.31152C16.6719 6.02242 16.4298 5.78027 16.1406 5.78027H3.67188V14.2803C3.67188 14.5573 3.44887 14.7803 3.17188 14.7803C2.89488 14.7803 2.67188 14.5573 2.67188 14.2803V5.28027C2.67188 5.00327 2.89488 4.78027 3.17188 4.78027H6.14062H14.6719V3.37402C14.6719 3.04682 14.4052 2.78027 14.0781 2.78027H6.67188V1.31152C6.67188 1.02237 6.42976 0.780273 6.14062 0.780273H1.20312Z" fill="url(#paint0_linear)"/>
<path fill-rule="evenodd" clip-rule="evenodd" d="M10.3456 7.94985C10.2501 7.90148 10.1376 7.90148 10.0421 7.94985C9.50345 8.22238 7.68448 9.14275 7.09288 9.44207C6.9779 9.50026 6.90527 9.61918 6.90527 9.74926C6.90527 10.4207 6.90527 12.4221 6.90527 13.0935C6.90527 13.2236 6.9779 13.3425 7.09288 13.4007C7.68448 13.7 9.50345 14.6204 10.0421 14.8929C10.1376 14.9413 10.2501 14.9413 10.3456 14.8929C10.8842 14.6204 12.7032 13.7 13.2948 13.4007C13.4098 13.3425 13.4824 13.2236 13.4824 13.0935C13.4824 12.4221 13.4824 10.4207 13.4824 9.74926C13.4824 9.61918 13.4098 9.50026 13.2948 9.44207C12.7032 9.14275 10.8842 8.22238 10.3456 7.94985Z" fill="#414141"/>
<path fill-rule="evenodd" clip-rule="evenodd" d="M10.089 8.04223L7.13981 9.53446C7.09972 9.55475 7.06704 9.58566 7.04435 9.62281C7.02151 9.66021 7.00879 9.70392 7.00879 9.74959V13.0938C7.00879 13.1395 7.02151 13.1832 7.04436 13.2206C7.06704 13.2578 7.09971 13.2887 7.13981 13.309L10.089 14.8012C10.1552 14.8347 10.2332 14.8347 10.2994 14.8012L13.2486 13.309C13.2887 13.2887 13.3214 13.2578 13.344 13.2206C13.3669 13.1832 13.3796 13.1395 13.3796 13.0938V9.74959C13.3796 9.70392 13.3669 9.66021 13.344 9.62281C13.3214 9.58566 13.2887 9.55474 13.2486 9.53445L10.2994 8.04224C10.2332 8.00871 10.1552 8.00871 10.089 8.04223Z" fill="#414141"/>
<path opacity="0.9" d="M10.208 9.60674C10.208 9.53286 10.2374 9.47668 10.2896 9.45055C10.3419 9.42443 10.4128 9.43051 10.4867 9.46747C10.8826 9.66535 11.6871 10.0678 12.083 10.2657C12.1569 10.3026 12.2278 10.3674 12.28 10.4458C12.3323 10.5241 12.3617 10.6097 12.3617 10.6836V12.1399C12.3617 12.2138 12.3323 12.27 12.28 12.2961C12.2278 12.3222 12.1569 12.3161 12.083 12.2792C11.6871 12.0813 10.8826 11.6789 10.4867 11.481C10.4128 11.444 10.3419 11.3792 10.2896 11.3009C10.2374 11.2225 10.208 11.137 10.208 11.0631V9.60674Z" fill="#868686"/>
<path opacity="0.9" d="M9.1123 10.1546C9.1123 10.0807 9.14166 10.0245 9.19392 9.9984C9.24618 9.97228 9.31706 9.97837 9.39097 10.0153C9.78687 10.2132 10.5914 10.6156 10.9873 10.8135C11.0612 10.8505 11.1321 10.9152 11.1843 10.9936C11.2366 11.072 11.2659 11.1575 11.2659 11.2314V12.6877C11.2659 12.7616 11.2366 12.8178 11.1843 12.8439C11.1321 12.8701 11.0612 12.864 10.9873 12.827C10.5914 12.6291 9.78687 12.2267 9.39097 12.0288C9.31706 11.9919 9.24618 11.9271 9.19392 11.8487C9.14166 11.7704 9.1123 11.6848 9.1123 11.6109V10.1546Z" fill="#868686"/>
<path opacity="0.9" d="M8.01562 10.7027C8.01562 10.6288 8.04498 10.5726 8.09724 10.5465C8.1495 10.5204 8.22038 10.5265 8.29429 10.5634C8.69019 10.7613 9.4947 11.1637 9.8906 11.3616C9.96452 11.3986 10.0354 11.4633 10.0877 11.5417C10.1399 11.6201 10.1693 11.7056 10.1693 11.7795V13.2358C10.1693 13.3097 10.1399 13.3659 10.0877 13.392C10.0354 13.4182 9.96452 13.4121 9.8906 13.3751C9.4947 13.1772 8.69019 12.7748 8.29429 12.5769C8.22038 12.54 8.1495 12.4752 8.09724 12.3968C8.04498 12.3185 8.01562 12.2329 8.01562 12.159V10.7027Z" fill="#868686"/>
<defs>
<linearGradient id="paint0_linear" x1="878.233" y1="407.883" x2="894.233" y2="407.883" gradientUnits="userSpaceOnUse">
<stop stop-color="#BEBEBE"/>
</linearGradient>
</defs>
</svg>
