<?xml version="1.0" encoding="UTF-8" standalone="no"?>
<svg
   xmlns:osb="http://www.openswatchbook.org/uri/2009/osb"
   xmlns:dc="http://purl.org/dc/elements/1.1/"
   xmlns:cc="http://creativecommons.org/ns#"
   xmlns:rdf="http://www.w3.org/1999/02/22-rdf-syntax-ns#"
   xmlns:svg="http://www.w3.org/2000/svg"
   xmlns="http://www.w3.org/2000/svg"
   xmlns:xlink="http://www.w3.org/1999/xlink"
   xmlns:sodipodi="http://sodipodi.sourceforge.net/DTD/sodipodi-0.dtd"
   xmlns:inkscape="http://www.inkscape.org/namespaces/inkscape"
   viewBox="0 0 15.999999 16"
   id="svg7384"
   height="16"
   width="16"
   version="1.1"
   inkscape:version="0.92.4 (f8dce91, 2019-08-02)"
   sodipodi:docname="glimpse-prefs-folders-icon-themes.svg">
  <sodipodi:namedview
     pagecolor="#ffffff"
     bordercolor="#666666"
     borderopacity="1"
     objecttolerance="10"
     gridtolerance="10"
     guidetolerance="10"
     inkscape:pageopacity="0"
     inkscape:pageshadow="2"
     inkscape:window-width="2493"
     inkscape:window-height="1025"
     id="namedview1507"
     showgrid="false"
     inkscape:zoom="14.75"
     inkscape:cx="19.980903"
     inkscape:cy="7.2742737"
     inkscape:window-x="67"
     inkscape:window-y="27"
     inkscape:window-maximized="1"
     inkscape:current-layer="preferences" />
  <metadata
     id="metadata90">
    <rdf:RDF>
      <cc:Work
         rdf:about="">
        <dc:format>image/svg+xml</dc:format>
        <dc:type
           rdf:resource="http://purl.org/dc/dcmitype/StillImage" />
        <dc:title />
        <dc:contributor>
          <cc:Agent>
            <dc:title>Barbara Muraus, Jakub Steiner, Klaus Staedtler</dc:title>
          </cc:Agent>
        </dc:contributor>
        <dc:description>Images originally created as the &quot;Art Libre&quot; icon set. Extended and adopted for GIMP</dc:description>
      </cc:Work>
    </rdf:RDF>
  </metadata>
  <defs
     id="defs7386">
    <linearGradient
       osb:paint="solid"
       id="linearGradient8074">
      <stop
         id="stop8072"
         offset="0"
         style="stop-color:#be00be;stop-opacity:1;" />
    </linearGradient>
    <linearGradient
       osb:paint="solid"
       id="linearGradient7561">
      <stop
         id="stop7558"
         offset="0"
         style="stop-color:#a5a5a5;stop-opacity:1;" />
    </linearGradient>
    <linearGradient
       osb:paint="solid"
       id="linearGradient7548">
      <stop
         id="stop7546"
         offset="0"
         style="stop-color:#ebebeb;stop-opacity:1;" />
    </linearGradient>
    <linearGradient
       osb:paint="solid"
       id="linearGradient7542">
      <stop
         id="stop7538"
         offset="0"
         style="stop-color:#c9c9c9;stop-opacity:1;" />
    </linearGradient>
    <linearGradient
       gradientTransform="matrix(0,-735328.32,170712.69,0,2464326300,577972450)"
       osb:paint="solid"
       id="linearGradient19282">
      <stop
         id="stop19284"
         offset="0"
         style="stop-color:#b4b4b4;stop-opacity:1;" />
    </linearGradient>
    <linearGradient
       gradientTransform="matrix(0.34682586,0,0,0.30620888,-139.35207,801.03851)"
       osb:paint="solid"
       id="linearGradient19282-4">
      <stop
         id="stop19284-0"
         offset="0"
         style="stop-color:#bebebe;stop-opacity:1;" />
    </linearGradient>
    <linearGradient
       gradientTransform="translate(877.5614,399.10288)"
       gradientUnits="userSpaceOnUse"
       y2="8"
       x2="16"
       y1="8"
       x1="0"
       id="linearGradient8328"
       xlink:href="#linearGradient19282-4" />
    <linearGradient
       id="linearGradient-1"
       y2="182.98888"
       x2="290.54846"
       y1="45.219006"
       x1="312.01022"
       gradientTransform="matrix(0.86512509,0,0,1.1559022,-264.24079,-241.10288)"
       gradientUnits="userSpaceOnUse">
      <stop
         id="stop404"
         offset="0%"
         stop-color="#080808" />
      <stop
         id="stop406"
         offset="44.5254486%"
         stop-color="#090909" />
      <stop
         id="stop408"
         offset="100%"
         stop-color="#0f0f0f" />
    </linearGradient>
    <radialGradient
       inkscape:collect="always"
       xlink:href="#radialGradient-2"
       id="radialGradient513"
       gradientTransform="matrix(0.86512509,0,0,1.1559022,-264.24079,-241.10288)"
       cx="289.31659"
       cy="100.09725"
       fx="289.31659"
       fy="100.09725"
       r="149.24791"
       gradientUnits="userSpaceOnUse" />
    <radialGradient
       id="radialGradient-2"
       gradientTransform="translate(0.467598,0.448487),scale(1.000000,0.748441),rotate(-35.912601),scale(1.000000,1.616335),translate(-0.467598,-0.448487)"
       r="0.67249018"
       fy="0.44848675"
       fx="0.4675985"
       cy="0.44848675"
       cx="0.4675985">
      <stop
         id="stop411"
         offset="0%"
         stop-opacity="0"
         stop-color="#1f1f1f" />
      <stop
         id="stop413"
         offset="42.6885382%"
         stop-opacity="0.245350346"
         stop-color="#131313" />
      <stop
         id="stop415"
         offset="58.698425%"
         stop-opacity="0.362185169"
         stop-color="#101010" />
      <stop
         id="stop417"
         offset="100%"
         stop-color="#000000" />
    </radialGradient>
    <radialGradient
       inkscape:collect="always"
       xlink:href="#radialGradient-2"
       id="radialGradient545"
       gradientTransform="scale(0.86512509,1.1559022)"
       cx="289.31659"
       cy="100.09725"
       fx="289.31659"
       fy="100.09725"
       r="149.24791"
       gradientUnits="userSpaceOnUse" />
    <radialGradient
       id="radialGradient555"
       gradientTransform="translate(0.467598,0.448487),scale(1.000000,0.748441),rotate(-35.912601),scale(1.000000,1.616335),translate(-0.467598,-0.448487)"
       r="0.67249018"
       fy="0.44848675"
       fx="0.4675985"
       cy="0.44848675"
       cx="0.4675985">
      <stop
         id="stop547"
         offset="0%"
         stop-opacity="0"
         stop-color="#1f1f1f" />
      <stop
         id="stop549"
         offset="42.6885382%"
         stop-opacity="0.245350346"
         stop-color="#131313" />
      <stop
         id="stop551"
         offset="58.698425%"
         stop-opacity="0.362185169"
         stop-color="#101010" />
      <stop
         id="stop553"
         offset="100%"
         stop-color="#000000" />
    </radialGradient>
    <linearGradient
       id="linearGradient-4"
       y2="224.50658"
       x2="194.89391"
       y1="69.652252"
       x1="218.69231"
       gradientTransform="matrix(0.86512509,0,0,1.1559022,-264.24079,-241.10288)"
       gradientUnits="userSpaceOnUse">
      <stop
         id="stop421"
         offset="0%"
         stop-color="#181818" />
      <stop
         id="stop423"
         offset="27.3977292%"
         stop-color="#3b3b3b" />
      <stop
         id="stop425"
         offset="100%"
         stop-color="#bcbcbc" />
    </linearGradient>
    <radialGradient
       inkscape:collect="always"
       xlink:href="#radialGradient-2"
       id="radialGradient515"
       gradientTransform="matrix(0.86512509,0,0,1.1559022,-264.24079,-241.10288)"
       cx="196.84441"
       cy="134.70226"
       fx="196.84441"
       fy="134.70226"
       r="149.24791"
       gradientUnits="userSpaceOnUse" />
    <radialGradient
       id="radialGradient578"
       gradientTransform="translate(0.467598,0.448487),scale(1.000000,0.748441),rotate(-35.912601),scale(1.000000,1.616335),translate(-0.467598,-0.448487)"
       r="0.67249018"
       fy="0.44848675"
       fx="0.4675985"
       cy="0.44848675"
       cx="0.4675985">
      <stop
         id="stop570"
         offset="0%"
         stop-opacity="0"
         stop-color="#1f1f1f" />
      <stop
         id="stop572"
         offset="42.6885382%"
         stop-opacity="0.245350346"
         stop-color="#131313" />
      <stop
         id="stop574"
         offset="58.698425%"
         stop-opacity="0.362185169"
         stop-color="#101010" />
      <stop
         id="stop576"
         offset="100%"
         stop-color="#000000" />
    </radialGradient>
    <radialGradient
       inkscape:collect="always"
       xlink:href="#radialGradient-2"
       id="radialGradient580"
       gradientTransform="scale(0.86512509,1.1559022)"
       cx="196.84441"
       cy="134.70226"
       fx="196.84441"
       fy="134.70226"
       r="149.24791"
       gradientUnits="userSpaceOnUse" />
    <radialGradient
       id="radialGradient590"
       gradientTransform="translate(0.467598,0.448487),scale(1.000000,0.748441),rotate(-35.912601),scale(1.000000,1.616335),translate(-0.467598,-0.448487)"
       r="0.67249018"
       fy="0.44848675"
       fx="0.4675985"
       cy="0.44848675"
       cx="0.4675985">
      <stop
         id="stop582"
         offset="0%"
         stop-opacity="0"
         stop-color="#1f1f1f" />
      <stop
         id="stop584"
         offset="42.6885382%"
         stop-opacity="0.245350346"
         stop-color="#131313" />
      <stop
         id="stop586"
         offset="58.698425%"
         stop-opacity="0.362185169"
         stop-color="#101010" />
      <stop
         id="stop588"
         offset="100%"
         stop-color="#000000" />
    </radialGradient>
    <linearGradient
       id="linearGradient-6"
       y2="259.11157"
       x2="102.42172"
       y1="104.25726"
       x1="126.22012"
       gradientTransform="matrix(0.86512509,0,0,1.1559022,-264.24079,-241.10288)"
       gradientUnits="userSpaceOnUse">
      <stop
         id="stop429"
         offset="0%"
         stop-color="#454545" />
      <stop
         id="stop431"
         offset="25.6996044%"
         stop-color="#707070" />
      <stop
         id="stop433"
         offset="51.5179513%"
         stop-color="#858585" />
      <stop
         id="stop435"
         offset="72.4834024%"
         stop-color="#878787" />
      <stop
         id="stop437"
         offset="100%"
         stop-color="#757575" />
    </linearGradient>
    <radialGradient
       inkscape:collect="always"
       xlink:href="#radialGradient-2"
       id="radialGradient517"
       gradientTransform="matrix(0.86512509,0,0,1.1559022,-264.24079,-241.10288)"
       cx="104.37224"
       cy="169.30727"
       fx="104.37224"
       fy="169.30727"
       r="149.24791"
       gradientUnits="userSpaceOnUse" />
    <radialGradient
       id="radialGradient619"
       gradientTransform="translate(0.467598,0.448487),scale(1.000000,0.748441),rotate(-35.912601),scale(1.000000,1.616335),translate(-0.467598,-0.448487)"
       r="0.67249018"
       fy="0.44848675"
       fx="0.4675985"
       cy="0.44848675"
       cx="0.4675985">
      <stop
         id="stop611"
         offset="0%"
         stop-opacity="0"
         stop-color="#1f1f1f" />
      <stop
         id="stop613"
         offset="42.6885382%"
         stop-opacity="0.245350346"
         stop-color="#131313" />
      <stop
         id="stop615"
         offset="58.698425%"
         stop-opacity="0.362185169"
         stop-color="#101010" />
      <stop
         id="stop617"
         offset="100%"
         stop-color="#000000" />
    </radialGradient>
    <radialGradient
       inkscape:collect="always"
       xlink:href="#radialGradient-2"
       id="radialGradient621"
       gradientTransform="scale(0.86512509,1.1559022)"
       cx="104.37224"
       cy="169.30727"
       fx="104.37224"
       fy="169.30727"
       r="149.24791"
       gradientUnits="userSpaceOnUse" />
    <radialGradient
       id="radialGradient631"
       gradientTransform="translate(0.467598,0.448487),scale(1.000000,0.748441),rotate(-35.912601),scale(1.000000,1.616335),translate(-0.467598,-0.448487)"
       r="0.67249018"
       fy="0.44848675"
       fx="0.4675985"
       cy="0.44848675"
       cx="0.4675985">
      <stop
         id="stop623"
         offset="0%"
         stop-opacity="0"
         stop-color="#1f1f1f" />
      <stop
         id="stop625"
         offset="42.6885382%"
         stop-opacity="0.245350346"
         stop-color="#131313" />
      <stop
         id="stop627"
         offset="58.698425%"
         stop-opacity="0.362185169"
         stop-color="#101010" />
      <stop
         id="stop629"
         offset="100%"
         stop-color="#000000" />
    </radialGradient>
  </defs>
  <g
     transform="translate(-264.24079,-241.10288)"
     style="display:inline"
     id="preferences">
    <g
       transform="translate(249.24079,281.10288)"
       id="gimp-prefs-folders-icon-themes"
       style="display:inline">
      <path
         id="rect3845-9"
         transform="translate(15,-40)"
         d="M 0.53125,0 C 0.24212,0 0,0.24212 0,0.53125 v 14.9375 C 0,15.76725 0.23264,16 0.53125,16 h 14.9375 C 15.76735,16 16,15.76735 16,15.46875 V 5.53125 C 16,5.24215 15.75788,5 15.46875,5 H 3 v 8.5 C 3,13.777 2.777,14 2.5,14 2.223,14 2,13.777 2,13.5 v -9 C 2,4.223 2.223,4 2.5,4 H 5.46875 14 V 2.59375 C 14,2.26655 13.73334,2 13.40625,2 H 6 V 0.53125 C 6,0.2421 5.75788,0 5.46875,0 Z"
         style="display:inline;fill:url(#linearGradient8328);fill-opacity:1;stroke:none"
         inkscape:connector-curvature="0"
         sodipodi:nodetypes="sssssssscsssssccsscsss" />
    </g>
    <g
       id="icon_sticker"
       transform="matrix(0.01803329,0,0,0.01781696,268.91241,246.98242)"
       style="display:inline;fill:none;fill-rule:evenodd;stroke:none;stroke-width:1">
      <g
         transform="translate(15.483871)"
         id="icon">
        <path
           id="hexagon_outline"
           d="m 251.59253,2.6475107 c -6.97242,-3.53001427 -15.17915,-3.53001427 -22.15363,0 C 190.13081,22.536739 57.382617,89.705182 14.207911,111.54949 5.8166529,115.79596 0.51612903,124.47478 0.51612903,133.96822 c 0,48.99827 0,195.06529 0,244.06293 0,9.49407 5.30052387,18.17331 13.69178197,22.41915 43.174706,21.84556 175.922899,89.01442 215.230989,108.90344 6.97448,3.52835 15.18121,3.52835 22.15363,0 39.30809,-19.88902 172.05856,-87.05788 215.23264,-108.90344 8.39043,-4.24584 13.69096,-12.92508 13.69096,-22.41915 0,-48.99764 0,-195.06466 0,-244.06293 0,-9.49344 -5.30053,-18.17226 -13.69096,-22.41873 C 423.65109,89.705182 290.90062,22.536739 251.59253,2.6475107 Z"
           inkscape:connector-curvature="0"
           style="fill:#000000" />
        <path
           id="hexagon"
           d="M 232.83896,9.365242 17.607143,118.26765 c -2.926057,1.48075 -5.31074,3.73718 -6.966287,6.44794 -1.6669968,2.72952 -2.5955603,5.91993 -2.5955603,9.25263 v 244.06293 c 0,3.33304 0.9285726,6.52376 2.5956403,9.25344 1.655444,2.71065 4.039942,4.96691 6.966238,6.44757 L 232.83817,502.63561 c 4.83365,2.44531 10.52195,2.44578 15.35478,1.6e-4 L 463.42592,393.73215 c 2.92577,-1.48053 5.31013,-3.73685 6.9655,-6.44755 1.66697,-2.72969 2.59554,-5.92041 2.59554,-9.25345 V 133.96822 c 0,-3.3327 -0.92856,-6.52311 -2.59546,-9.25264 -1.65548,-2.71081 -4.04002,-4.96729 -6.96626,-6.44828 L 248.19332,9.3656736 C 243.35964,6.9184664 237.67229,6.9189374 232.83896,9.365242 Z"
           inkscape:connector-curvature="0"
           style="fill:#ededed" />
        <g
           transform="translate(64,87)"
           id="root">
          <g
             id="frame_back"
             style="opacity:0.89957682">
            <path
               inkscape:connector-curvature="0"
               d="m 160.51613,16 c 0,-6.5867 2.61747,-11.59532 7.2765,-13.92428 4.65904,-2.32897 10.97811,-1.78643 17.56687,1.50795 35.2951,17.64155 107.01774,53.5196 142.31284,71.16114 6.59062,3.29439 12.90887,9.06832 17.56811,16.05522 4.65924,6.98689 7.27568,14.61327 7.27568,21.19997 v 129.83407 c 0,6.58711 -2.61644,11.59614 -7.27568,13.9249 -4.65924,2.32896 -10.97749,1.78705 -17.56811,-1.50651 -35.2951,-17.64258 -107.01774,-53.5198 -142.31284,-71.16218 -6.58876,-3.29355 -12.90783,-9.06893 -17.56687,-16.05562 -4.65903,-6.98648 -7.2765,-14.61204 -7.2765,-21.19915 z"
               id="use445"
               style="fill:url(#linearGradient-1)" />
            <path
               inkscape:connector-curvature="0"
               d="m 160.51613,16 c 0,-6.5867 2.61747,-11.59532 7.2765,-13.92428 4.65904,-2.32897 10.97811,-1.78643 17.56687,1.50795 35.2951,17.64155 107.01774,53.5196 142.31284,71.16114 6.59062,3.29439 12.90887,9.06832 17.56811,16.05522 4.65924,6.98689 7.27568,14.61327 7.27568,21.19997 v 129.83407 c 0,6.58711 -2.61644,11.59614 -7.27568,13.9249 -4.65924,2.32896 -10.97749,1.78705 -17.56811,-1.50651 -35.2951,-17.64258 -107.01774,-53.5198 -142.31284,-71.16218 -6.58876,-3.29355 -12.90783,-9.06893 -17.56687,-16.05562 -4.65903,-6.98648 -7.2765,-14.61204 -7.2765,-21.19915 z"
               id="use447"
               style="fill:url(#radialGradient513);fill-opacity:0.6" />
          </g>
          <g
             transform="translate(289.07513,94)"
             id="pic/moon"
             style="opacity:0.89704237;fill:#000000">
            <path
               id="moon"
               d="M 0,17.768442 C 0,4.6596409 6.5505521,-2.5074178 14.95358,0.80355953 13.988605,3.477102 13.451172,6.7444138 13.451172,10.49921 c 0,14.008691 7.480782,29.498093 16.708795,34.596548 0.592985,0.327623 1.178755,0.604366 1.75579,0.8317 C 29.281764,53.227217 23.463332,56.096856 16.708795,52.36499 7.4807824,47.266535 0,31.777133 0,17.768442 Z"
               inkscape:connector-curvature="0" />
          </g>
          <g
             id="frame_mid"
             style="opacity:0.89957682">
            <path
               inkscape:connector-curvature="0"
               d="m 80.51613,56 c 0,-6.5867 2.61747,-11.59532 7.2765,-13.92428 4.65904,-2.32897 10.97811,-1.78643 17.56687,1.50795 35.2951,17.64155 107.01774,53.5196 142.31284,71.16114 6.59062,3.29439 12.90887,9.06832 17.56811,16.05522 4.65924,6.98689 7.27568,14.61327 7.27568,21.19997 v 129.83407 c 0,6.58711 -2.61644,11.59614 -7.27568,13.9249 -4.65924,2.32896 -10.97749,1.78705 -17.56811,-1.50651 -35.2951,-17.64258 -107.01774,-53.5198 -142.31284,-71.16218 -6.58876,-3.29355 -12.90783,-9.06893 -17.56687,-16.05562 -4.65903,-6.98648 -7.2765,-14.61204 -7.2765,-21.19915 z"
               id="use452"
               style="fill:url(#linearGradient-4)" />
            <path
               inkscape:connector-curvature="0"
               d="m 80.51613,56 c 0,-6.5867 2.61747,-11.59532 7.2765,-13.92428 4.65904,-2.32897 10.97811,-1.78643 17.56687,1.50795 35.2951,17.64155 107.01774,53.5196 142.31284,71.16114 6.59062,3.29439 12.90887,9.06832 17.56811,16.05522 4.65924,6.98689 7.27568,14.61327 7.27568,21.19997 v 129.83407 c 0,6.58711 -2.61644,11.59614 -7.27568,13.9249 -4.65924,2.32896 -10.97749,1.78705 -17.56811,-1.50651 -35.2951,-17.64258 -107.01774,-53.5198 -142.31284,-71.16218 -6.58876,-3.29355 -12.90783,-9.06893 -17.56687,-16.05562 -4.65903,-6.98648 -7.2765,-14.61204 -7.2765,-21.19915 z"
               id="use454"
               style="fill:url(#radialGradient515);fill-opacity:0.6" />
          </g>
          <path
             id="picture_mid"
             d="m 229.28021,185.21651 c 5.07414,0 9.8475,2.40685 12.86451,6.48662 l 30.37141,41.06938 v 49.06156 c 0,6.58711 -2.61644,11.59614 -7.27568,13.9249 -4.65924,2.32896 -10.97749,1.78705 -17.56811,-1.50651 C 212.37724,276.60988 140.6546,240.73266 105.3595,223.09028 98.770741,219.79673 92.45167,214.02135 87.792635,207.03466 83.1336,200.04818 80.516129,192.42262 80.516129,185.83551 v -0.619 z"
             inkscape:connector-curvature="0"
             style="opacity:0.89704237;fill:#000000" />
          <g
             id="frame_front"
             style="opacity:0.89957682">
            <path
               inkscape:connector-curvature="0"
               d="m 0.51613,96 c 0,-6.5867 2.61747,-11.59532 7.2765,-13.92428 4.65904,-2.32897 10.97811,-1.78643 17.56687,1.50795 35.2951,17.64155 107.01774,53.5196 142.31284,71.16114 6.59062,3.29439 12.90887,9.06832 17.56811,16.05522 4.65924,6.98689 7.27568,14.61327 7.27568,21.19997 v 129.83407 c 0,6.58711 -2.61644,11.59614 -7.27568,13.9249 -4.65924,2.32896 -10.97749,1.78705 -17.56811,-1.50651 C 132.37724,316.60988 60.6546,280.73266 25.3595,263.09028 18.77074,259.79673 12.45167,254.02135 7.79263,247.03466 3.1336,240.04818 0.51613,232.42262 0.51613,225.83551 Z"
               id="use458"
               style="fill:url(#linearGradient-6)" />
            <path
               inkscape:connector-curvature="0"
               d="m 0.51613,96 c 0,-6.5867 2.61747,-11.59532 7.2765,-13.92428 4.65904,-2.32897 10.97811,-1.78643 17.56687,1.50795 35.2951,17.64155 107.01774,53.5196 142.31284,71.16114 6.59062,3.29439 12.90887,9.06832 17.56811,16.05522 4.65924,6.98689 7.27568,14.61327 7.27568,21.19997 v 129.83407 c 0,6.58711 -2.61644,11.59614 -7.27568,13.9249 -4.65924,2.32896 -10.97749,1.78705 -17.56811,-1.50651 C 132.37724,316.60988 60.6546,280.73266 25.3595,263.09028 18.77074,259.79673 12.45167,254.02135 7.79263,247.03466 3.1336,240.04818 0.51613,232.42262 0.51613,225.83551 Z"
               id="use460"
               style="fill:url(#radialGradient517);fill-opacity:0.6" />
          </g>
          <path
             id="picture_front"
             d="M 25.359503,263.09028 C 18.770741,259.79673 12.45167,254.02135 7.7926349,247.03466 3.1335995,240.04818 0.51612903,232.42262 0.51612903,225.83551 L 0.51606692,189.45854 47.4199,185.75729 c 5.904384,-0.46595 11.58316,2.36788 14.760867,7.36598 L 144.56405,322.69919 C 106.86168,303.84689 54.063896,277.43827 25.359503,263.09028 Z"
             inkscape:connector-curvature="0"
             style="opacity:0.89704237;fill:#000000" />
        </g>
      </g>
    </g>
  </g>
</svg>
