<?xml version="1.0" encoding="UTF-8" standalone="no"?>
<svg
   xmlns:dc="http://purl.org/dc/elements/1.1/"
   xmlns:cc="http://creativecommons.org/ns#"
   xmlns:rdf="http://www.w3.org/1999/02/22-rdf-syntax-ns#"
   xmlns:svg="http://www.w3.org/2000/svg"
   xmlns="http://www.w3.org/2000/svg"
   xmlns:xlink="http://www.w3.org/1999/xlink"
   xmlns:sodipodi="http://sodipodi.sourceforge.net/DTD/sodipodi-0.dtd"
   xmlns:inkscape="http://www.inkscape.org/namespaces/inkscape"
   width="480"
   height="512"
   viewBox="0 0 480 512"
   version="1.1"
   id="svg150"
   sodipodi:docname="glimpse-icon.svg"
   inkscape:version="0.92.4 (5da689c313, 2019-01-14)">
  <metadata
     id="metadata154">
    <rdf:RDF>
      <cc:Work
         rdf:about="">
        <dc:format>image/svg+xml</dc:format>
        <dc:type
           rdf:resource="http://purl.org/dc/dcmitype/StillImage" />
        <dc:title>icon</dc:title>
      </cc:Work>
    </rdf:RDF>
  </metadata>
  <sodipodi:namedview
     pagecolor="#ffffff"
     bordercolor="#666666"
     borderopacity="1"
     objecttolerance="10"
     gridtolerance="10"
     guidetolerance="10"
     inkscape:pageopacity="0"
     inkscape:pageshadow="2"
     inkscape:window-width="1920"
     inkscape:window-height="1017"
     id="namedview152"
     showgrid="false"
     inkscape:zoom="1.6601562"
     inkscape:cx="240"
     inkscape:cy="256"
     inkscape:window-x="-8"
     inkscape:window-y="-8"
     inkscape:window-maximized="1"
     inkscape:current-layer="svg150" />
  <!-- Generator: Sketch 57.1 (83088) - https://sketch.com -->
  <title
     id="title83">icon</title>
  <desc
     id="desc85">Created with Sketch.</desc>
  <defs
     id="defs124">
    <linearGradient
       x1="312.01024"
       y1="45.219006"
       x2="290.54847"
       y2="182.98887"
       id="linearGradient-1"
       gradientTransform="scale(0.86512509,1.1559022)"
       gradientUnits="userSpaceOnUse">
      <stop
         stop-color="#7E56F7"
         offset="0%"
         id="stop87" />
      <stop
         stop-color="#677CF6"
         offset="44.5254486%"
         id="stop89" />
      <stop
         stop-color="#3DB0F0"
         offset="100%"
         id="stop91" />
    </linearGradient>
    <radialGradient
       cx="0.4675985"
       cy="0.44848675"
       fx="0.4675985"
       fy="0.44848675"
       r="0.67249018"
       gradientTransform="translate(0.467598,0.448487),scale(1.000000,0.748441),rotate(-35.912601),scale(1.000000,1.616335),translate(-0.467598,-0.448487)"
       id="radialGradient-2">
      <stop
         stop-color="#D2D3E0"
         stop-opacity="0"
         offset="0%"
         id="stop94" />
      <stop
         stop-color="#E2E3EC"
         stop-opacity="0.245350346"
         offset="42.6885382%"
         id="stop96" />
      <stop
         stop-color="#E7E7EF"
         stop-opacity="0.362185169"
         offset="58.698425%"
         id="stop98" />
      <stop
         stop-color="#FFFFFF"
         offset="100%"
         id="stop100" />
    </radialGradient>
    <path
       d="m 160.51613,16 c 0,-6.5867003 2.61747,-11.5953155 7.2765,-13.9242804 4.65904,-2.32896479 10.97811,-1.78643357 17.56687,1.507948 35.2951,17.6415474 107.01774,53.5195994 142.31284,71.1611464 6.59062,3.294382 12.90887,9.068317 17.56811,16.055211 4.65924,6.986895 7.27568,14.613275 7.27568,21.199975 v 129.83407 c 0,6.58711 -2.61644,11.59614 -7.27568,13.9249 -4.65924,2.32896 -10.97749,1.78705 -17.56811,-1.50651 -35.2951,-17.64258 -107.01774,-53.5198 -142.31284,-71.16218 -6.58876,-3.29355 -12.90783,-9.06893 -17.56687,-16.05562 -4.65903,-6.98648 -7.2765,-14.61204 -7.2765,-21.19915 z"
       id="path-3"
       inkscape:connector-curvature="0" />
    <linearGradient
       x1="218.6923"
       y1="69.652256"
       x2="194.8939"
       y2="224.50657"
       id="linearGradient-4"
       gradientTransform="scale(0.8651251,1.1559022)"
       gradientUnits="userSpaceOnUse">
      <stop
         stop-color="#5EE2E7"
         offset="0%"
         id="stop104" />
      <stop
         stop-color="#99E7C4"
         offset="27.3977292%"
         id="stop106" />
      <stop
         stop-color="#E6ED43"
         offset="100%"
         id="stop108" />
    </linearGradient>
    <path
       d="m 80.516129,56 c 0,-6.5867 2.617471,-11.595316 7.276506,-13.92428 4.659035,-2.328965 10.978106,-1.786434 17.566865,1.507948 35.2951,17.641547 107.01774,53.519599 142.31284,71.161142 6.59062,3.29439 12.90887,9.06832 17.56811,16.05521 4.65924,6.9869 7.27568,14.61328 7.27568,21.19998 v 129.83407 c 0,6.58711 -2.61644,11.59614 -7.27568,13.9249 -4.65924,2.32896 -10.97749,1.78705 -17.56811,-1.50651 C 212.37724,276.60988 140.6546,240.73266 105.3595,223.09028 98.770741,219.79673 92.45167,214.02135 87.792635,207.03466 83.1336,200.04818 80.516129,192.42262 80.516129,185.83551 Z"
       id="path-5"
       inkscape:connector-curvature="0" />
    <linearGradient
       x1="126.22012"
       y1="104.25726"
       x2="102.42172"
       y2="259.11158"
       id="linearGradient-6"
       gradientTransform="scale(0.8651251,1.1559022)"
       gradientUnits="userSpaceOnUse">
      <stop
         stop-color="#F458BA"
         offset="0%"
         id="stop112" />
      <stop
         stop-color="#F46E8F"
         offset="25.6996044%"
         id="stop114" />
      <stop
         stop-color="#EE767A"
         offset="51.5179513%"
         id="stop116" />
      <stop
         stop-color="#EF8F78"
         offset="72.4834024%"
         id="stop118" />
      <stop
         stop-color="#FAD58A"
         offset="100%"
         id="stop120" />
    </linearGradient>
    <path
       d="m 0.51612903,96 c 0,-6.5867 2.61747047,-11.595316 7.27650587,-13.92428 4.6590351,-2.328965 10.9781061,-1.786434 17.5668681,1.507948 35.295098,17.641552 107.017737,53.519602 142.312837,71.161142 6.59062,3.29439 12.90887,9.06832 17.56811,16.05521 4.65924,6.9869 7.27568,14.61328 7.27568,21.19998 v 129.83407 c 0,6.58711 -2.61644,11.59614 -7.27568,13.9249 -4.65924,2.32896 -10.97749,1.78705 -17.56811,-1.50651 C 132.37724,316.60988 60.654601,280.73266 25.359503,263.09028 18.770741,259.79673 12.45167,254.02135 7.7926349,247.03466 3.1335995,240.04818 0.51612903,232.42262 0.51612903,225.83551 Z"
       id="path-7"
       inkscape:connector-curvature="0" />
    <radialGradient
       inkscape:collect="always"
       xlink:href="#radialGradient-2"
       id="radialGradient156"
       gradientTransform="scale(0.86512509,1.1559022)"
       cx="289.31659"
       cy="100.09725"
       fx="289.31659"
       fy="100.09725"
       r="149.24791"
       gradientUnits="userSpaceOnUse" />
    <radialGradient
       inkscape:collect="always"
       xlink:href="#radialGradient-2"
       id="radialGradient158"
       gradientTransform="scale(0.8651251,1.1559022)"
       cx="196.84441"
       cy="134.70225"
       fx="196.84441"
       fy="134.70225"
       r="149.24791"
       gradientUnits="userSpaceOnUse" />
    <radialGradient
       inkscape:collect="always"
       xlink:href="#radialGradient-2"
       id="radialGradient160"
       gradientTransform="scale(0.8651251,1.1559022)"
       cx="104.37224"
       cy="169.30726"
       fx="104.37224"
       fy="169.30726"
       r="149.24791"
       gradientUnits="userSpaceOnUse" />
  </defs>
  <g
     id="icon"
     style="fill:none;fill-rule:evenodd;stroke:none;stroke-width:1"
     transform="translate(-16)">
    <g
       transform="translate(15.483871)"
       id="g147">
      <path
         d="m 251.59253,2.6475107 c -6.97242,-3.53001427 -15.17915,-3.53001427 -22.15363,0 C 190.13081,22.536739 57.382617,89.705182 14.207911,111.54949 5.8166529,115.79596 0.51612903,124.47478 0.51612903,133.96822 c 0,48.99827 0,195.06529 0,244.06293 0,9.49407 5.30052387,18.17331 13.69178197,22.41915 43.174706,21.84556 175.922899,89.01442 215.230989,108.90344 6.97448,3.52835 15.18121,3.52835 22.15363,0 39.30809,-19.88902 172.05856,-87.05788 215.23264,-108.90344 8.39043,-4.24584 13.69096,-12.92508 13.69096,-22.41915 0,-48.99764 0,-195.06466 0,-244.06293 0,-9.49344 -5.30053,-18.17226 -13.69096,-22.41873 C 423.65109,89.705182 290.90062,22.536739 251.59253,2.6475107 Z"
         id="hexagon"
         inkscape:connector-curvature="0"
         style="fill:#000012" />
      <g
         id="root"
         transform="translate(64,87)">
        <g
           id="frame_back"
           style="opacity:0.89957682">
          <use
             xlink:href="#path-3"
             id="use127"
             style="fill:url(#linearGradient-1)"
             x="0"
             y="0"
             width="100%"
             height="100%" />
          <use
             xlink:href="#path-3"
             id="use129"
             style="fill:url(#radialGradient156);fill-opacity:0.6"
             x="0"
             y="0"
             width="100%"
             height="100%" />
        </g>
        <g
           id="pic/moon"
           transform="translate(289.07513,94)"
           style="opacity:0.89704237;fill:#ffffff">
          <path
             d="M 0,17.768442 C 0,4.6596409 6.5505521,-2.5074178 14.95358,0.80355953 13.988605,3.477102 13.451172,6.7444138 13.451172,10.49921 c 0,14.008691 7.480782,29.498093 16.708795,34.596548 0.592985,0.327623 1.178755,0.604366 1.75579,0.8317 C 29.281764,53.227217 23.463332,56.096856 16.708795,52.36499 7.4807824,47.266535 0,31.777133 0,17.768442 Z"
             id="moon"
             inkscape:connector-curvature="0" />
        </g>
        <g
           id="frame_mid"
           style="opacity:0.89957682">
          <use
             xlink:href="#path-5"
             id="use134"
             style="fill:url(#linearGradient-4)"
             x="0"
             y="0"
             width="100%"
             height="100%" />
          <use
             xlink:href="#path-5"
             id="use136"
             style="fill:url(#radialGradient158);fill-opacity:0.6"
             x="0"
             y="0"
             width="100%"
             height="100%" />
        </g>
        <path
           d="m 229.28021,185.21651 c 5.07414,0 9.8475,2.40685 12.86451,6.48662 l 30.37141,41.06938 v 49.06156 c 0,6.58711 -2.61644,11.59614 -7.27568,13.9249 -4.65924,2.32896 -10.97749,1.78705 -17.56811,-1.50651 C 212.37724,276.60988 140.6546,240.73266 105.3595,223.09028 98.770741,219.79673 92.45167,214.02135 87.792635,207.03466 83.1336,200.04818 80.516129,192.42262 80.516129,185.83551 v -0.619 z"
           id="picture_mid"
           inkscape:connector-curvature="0"
           style="opacity:0.89704237;fill:#ffffff" />
        <g
           id="frame_front"
           style="opacity:0.89957682">
          <use
             xlink:href="#path-7"
             id="use140"
             style="fill:url(#linearGradient-6)"
             x="0"
             y="0"
             width="100%"
             height="100%" />
          <use
             xlink:href="#path-7"
             id="use142"
             style="fill:url(#radialGradient160);fill-opacity:0.6"
             x="0"
             y="0"
             width="100%"
             height="100%" />
        </g>
        <path
           d="M 62.180767,193.12327 144.56405,322.69919 C 106.86168,303.84689 54.063896,277.43827 25.359503,263.09028 18.770741,259.79673 12.45167,254.02135 7.7926349,247.03466 3.1335995,240.04818 0.51612903,232.42262 0.51612903,225.83551 L 0.51606692,189.45854 47.4199,185.75729 c 5.904384,-0.46595 11.58316,2.36788 14.760867,7.36598 z"
           id="picture_front"
           inkscape:connector-curvature="0"
           style="opacity:0.89704237;fill:#ffffff" />
      </g>
    </g>
  </g>
</svg>
