<?xml version="1.0" encoding="UTF-8" standalone="no"?>
<svg
   xmlns:osb="http://www.openswatchbook.org/uri/2009/osb"
   xmlns:dc="http://purl.org/dc/elements/1.1/"
   xmlns:cc="http://creativecommons.org/ns#"
   xmlns:rdf="http://www.w3.org/1999/02/22-rdf-syntax-ns#"
   xmlns:svg="http://www.w3.org/2000/svg"
   xmlns="http://www.w3.org/2000/svg"
   xmlns:xlink="http://www.w3.org/1999/xlink"
   xmlns:sodipodi="http://sodipodi.sourceforge.net/DTD/sodipodi-0.dtd"
   xmlns:inkscape="http://www.inkscape.org/namespaces/inkscape"
   viewBox="0 0 15.999999 16"
   id="svg7384"
   height="16"
   width="16"
   version="1.1"
   inkscape:version="0.92.4 (f8dce91, 2019-08-02)"
   sodipodi:docname="glimpse-prefs-icon-theme.svg">
  <sodipodi:namedview
     pagecolor="#ffffff"
     bordercolor="#666666"
     borderopacity="1"
     objecttolerance="10"
     gridtolerance="10"
     guidetolerance="10"
     inkscape:pageopacity="0"
     inkscape:pageshadow="2"
     inkscape:window-width="640"
     inkscape:window-height="480"
     id="namedview1518"
     showgrid="false"
     inkscape:zoom="10.433896"
     inkscape:cx="6.824944"
     inkscape:cy="12.777941"
     inkscape:window-x="211"
     inkscape:window-y="255"
     inkscape:window-maximized="0"
     inkscape:current-layer="preferences" />
  <metadata
     id="metadata90">
    <rdf:RDF>
      <cc:Work
         rdf:about="">
        <dc:format>image/svg+xml</dc:format>
        <dc:type
           rdf:resource="http://purl.org/dc/dcmitype/StillImage" />
        <dc:title />
        <dc:contributor>
          <cc:Agent>
            <dc:title>Barbara Muraus, Jakub Steiner, Klaus Staedtler</dc:title>
          </cc:Agent>
        </dc:contributor>
        <dc:description>Images originally created as the &quot;Art Libre&quot; icon set. Extended and adopted for GIMP</dc:description>
      </cc:Work>
    </rdf:RDF>
  </metadata>
  <defs
     id="defs7386">
    <linearGradient
       osb:paint="solid"
       id="linearGradient8074">
      <stop
         id="stop8072"
         offset="0"
         style="stop-color:#be00be;stop-opacity:1;" />
    </linearGradient>
    <linearGradient
       osb:paint="solid"
       id="linearGradient7561">
      <stop
         id="stop7558"
         offset="0"
         style="stop-color:#a5a5a5;stop-opacity:1;" />
    </linearGradient>
    <linearGradient
       osb:paint="solid"
       id="linearGradient7548">
      <stop
         id="stop7546"
         offset="0"
         style="stop-color:#ebebeb;stop-opacity:1;" />
    </linearGradient>
    <linearGradient
       osb:paint="solid"
       id="linearGradient7542">
      <stop
         id="stop7538"
         offset="0"
         style="stop-color:#c9c9c9;stop-opacity:1;" />
    </linearGradient>
    <linearGradient
       gradientTransform="matrix(0,-735328.32,170712.69,0,2464326300,577972450)"
       osb:paint="solid"
       id="linearGradient19282">
      <stop
         id="stop19284"
         offset="0"
         style="stop-color:#b4b4b4;stop-opacity:1;" />
    </linearGradient>
    <linearGradient
       gradientTransform="matrix(0.34682586,0,0,0.30620888,-154.35207,-275.32369)"
       osb:paint="solid"
       id="linearGradient19282-4">
      <stop
         id="stop19284-0"
         offset="0"
         style="stop-color:#bebebe;stop-opacity:1;" />
    </linearGradient>
    <linearGradient
       gradientTransform="matrix(1,0,0,1.0003903,1139.2225,-526.10035)"
       gradientUnits="userSpaceOnUse"
       y2="1040.2997"
       x2="6.1507378"
       y1="1040.2997"
       x1="2.8525253e-09"
       id="linearGradient8148"
       xlink:href="#linearGradient19282-4" />
    <linearGradient
       gradientTransform="matrix(1,0,0,1.0003903,1139.2225,-526.10035)"
       gradientUnits="userSpaceOnUse"
       y2="1048.8622"
       x2="7"
       y1="1048.8622"
       x1="0"
       id="linearGradient8154"
       xlink:href="#linearGradient19282-4" />
    <linearGradient
       gradientTransform="matrix(1,0,0,1.0003903,1139.2225,-526.10035)"
       gradientUnits="userSpaceOnUse"
       y2="1049.3622"
       x2="16"
       y1="1049.3622"
       x1="10"
       id="linearGradient8160"
       xlink:href="#linearGradient19282-4" />
    <linearGradient
       gradientTransform="translate(1660.3397,633.24575)"
       gradientUnits="userSpaceOnUse"
       y2="201.43648"
       x2="281.00061"
       y1="201.43648"
       x1="264.75781"
       id="linearGradient8166"
       xlink:href="#linearGradient19282-4" />
    <linearGradient
       gradientTransform="translate(1660.3397,633.24575)"
       gradientUnits="userSpaceOnUse"
       y2="210.408"
       x2="279.99942"
       y1="210.408"
       x1="276.81235"
       id="linearGradient8172"
       xlink:href="#linearGradient19282-4" />
    <linearGradient
       gradientTransform="translate(1660.3397,633.24575)"
       gradientUnits="userSpaceOnUse"
       y2="208.10582"
       x2="278.74872"
       y1="208.10582"
       x1="274.95056"
       id="linearGradient8178"
       xlink:href="#linearGradient19282-4" />
    <linearGradient
       gradientTransform="translate(1616.727,426.10341)"
       gradientUnits="userSpaceOnUse"
       y2="-15.5"
       x2="34.471458"
       y1="-15.5"
       x1="33"
       id="linearGradient8184"
       xlink:href="#linearGradient19282-4" />
    <linearGradient
       gradientTransform="translate(1660.3397,633.24575)"
       gradientUnits="userSpaceOnUse"
       y2="201.42265"
       x2="271.44812"
       y1="201.42265"
       x1="270.26382"
       id="linearGradient8190"
       xlink:href="#linearGradient19282-4" />
    <linearGradient
       gradientTransform="translate(1222.4629,1094.8359)"
       gradientUnits="userSpaceOnUse"
       y2="274.20612"
       x2="151.18781"
       y1="274.20612"
       x1="147.0748"
       id="linearGradient8196"
       xlink:href="#linearGradient19282-4" />
    <linearGradient
       id="linearGradient-1"
       y2="182.98887"
       x2="290.54847"
       y1="45.219006"
       x1="312.01023"
       gradientTransform="scale(0.86512509,1.1559022)"
       gradientUnits="userSpaceOnUse">
      <stop
         id="stop404"
         offset="0%"
         stop-color="#080808" />
      <stop
         id="stop406"
         offset="44.5254486%"
         stop-color="#090909" />
      <stop
         id="stop408"
         offset="100%"
         stop-color="#0f0f0f" />
    </linearGradient>
    <radialGradient
       id="radialGradient-2"
       gradientTransform="translate(0.467598,0.448487),scale(1.000000,0.748441),rotate(-35.912601),scale(1.000000,1.616335),translate(-0.467598,-0.448487)"
       r="67.2490133%"
       fy="44.8486747%"
       fx="46.7598488%"
       cy="44.8486747%"
       cx="46.7598488%">
      <stop
         id="stop411"
         offset="0%"
         stop-opacity="0"
         stop-color="#1f1f1f" />
      <stop
         id="stop413"
         offset="42.6885382%"
         stop-opacity="0.245350346"
         stop-color="#131313" />
      <stop
         id="stop415"
         offset="58.698425%"
         stop-opacity="0.362185169"
         stop-color="#101010" />
      <stop
         id="stop417"
         offset="100%"
         stop-color="#000000" />
    </radialGradient>
    <path
       id="path-3"
       d="M160.516129,16 C160.516129,9.41329967 163.133599,4.40468445 167.792635,2.07571963 C172.45167,-0.253245192 178.770741,0.289286028 185.359504,3.58366762 C220.654602,21.2252151 292.377244,57.1032668 327.672342,74.7448143 C334.262961,78.0391959 340.581207,83.8131308 345.240449,90.8000253 C349.89969,97.7869197 352.516129,105.4133 352.516129,112 L352.516129,241.834067 C352.516129,248.42118 349.89969,253.430208 345.240449,255.758966 C340.581207,258.087931 334.262961,257.546019 327.672342,254.252462 C292.377244,236.609883 220.654602,200.732657 185.359504,183.090284 C178.770741,179.796728 172.45167,174.021349 167.792635,167.034661 C163.133599,160.048179 160.516129,152.422624 160.516129,145.835511 L160.516129,16 Z" />
    <linearGradient
       id="linearGradient-4"
       y2="224.50657"
       x2="194.8939"
       y1="69.652255"
       x1="218.6923"
       gradientTransform="scale(0.86512509,1.1559022)"
       gradientUnits="userSpaceOnUse">
      <stop
         id="stop421"
         offset="0%"
         stop-color="#181818" />
      <stop
         id="stop423"
         offset="27.3977292%"
         stop-color="#3b3b3b" />
      <stop
         id="stop425"
         offset="100%"
         stop-color="#bcbcbc" />
    </linearGradient>
    <path
       id="path-5"
       d="M80.516129,56 C80.516129,49.4132997 83.1335995,44.4046844 87.7926349,42.0757196 C92.4516704,39.7467548 98.7707413,40.289286 105.359504,43.5836676 C140.654602,61.2252151 212.377244,97.1032668 247.672342,114.744814 C254.262961,118.039196 260.581207,123.813131 265.240449,130.800025 C269.89969,137.78692 272.516129,145.4133 272.516129,152 L272.516129,281.834067 C272.516129,288.42118 269.89969,293.430208 265.240449,295.758966 C260.581207,298.087931 254.262961,297.546019 247.672342,294.252462 C212.377244,276.609883 140.654602,240.732657 105.359504,223.090284 C98.7707413,219.796728 92.4516704,214.021349 87.7926349,207.034661 C83.1335995,200.048179 80.516129,192.422624 80.516129,185.835511 L80.516129,56 Z" />
    <linearGradient
       id="linearGradient-6"
       y2="259.11158"
       x2="102.42172"
       y1="104.25726"
       x1="126.22012"
       gradientTransform="scale(0.86512509,1.1559022)"
       gradientUnits="userSpaceOnUse">
      <stop
         id="stop429"
         offset="0%"
         stop-color="#454545" />
      <stop
         id="stop431"
         offset="25.6996044%"
         stop-color="#707070" />
      <stop
         id="stop433"
         offset="51.5179513%"
         stop-color="#858585" />
      <stop
         id="stop435"
         offset="72.4834024%"
         stop-color="#878787" />
      <stop
         id="stop437"
         offset="100%"
         stop-color="#757575" />
    </linearGradient>
    <path
       id="path-7"
       d="M0.516129032,96 C0.516129032,89.4132997 3.13359947,84.4046844 7.79263494,82.0757196 C12.4516704,79.7467548 18.7707413,80.289286 25.3595035,83.5836676 C60.6546015,101.225215 132.377244,137.103267 167.672342,154.744814 C174.262961,158.039196 180.581207,163.813131 185.240449,170.800025 C189.89969,177.78692 192.516129,185.4133 192.516129,192 L192.516129,321.834067 C192.516129,328.42118 189.89969,333.430208 185.240449,335.758966 C180.581207,338.087931 174.262961,337.546019 167.672342,334.252462 C132.377244,316.609883 60.6546015,280.732657 25.3595035,263.090284 C18.7707413,259.796728 12.4516704,254.021349 7.79263494,247.034661 C3.13359947,240.048179 0.516129032,232.422624 0.516129032,225.835511 L0.516129032,96 Z" />
    <radialGradient
       inkscape:collect="always"
       xlink:href="#radialGradient-2"
       id="radialGradient513"
       gradientTransform="scale(0.86512509,1.1559022)"
       cx="289.31659"
       cy="100.09725"
       fx="289.31659"
       fy="100.09725"
       r="149.24791"
       gradientUnits="userSpaceOnUse" />
    <radialGradient
       inkscape:collect="always"
       xlink:href="#radialGradient-2"
       id="radialGradient515"
       gradientTransform="scale(0.86512509,1.1559022)"
       cx="196.84441"
       cy="134.70225"
       fx="196.84441"
       fy="134.70225"
       r="149.24791"
       gradientUnits="userSpaceOnUse" />
    <radialGradient
       inkscape:collect="always"
       xlink:href="#radialGradient-2"
       id="radialGradient517"
       gradientTransform="scale(0.86512509,1.1559022)"
       cx="104.37224"
       cy="169.30726"
       fx="104.37224"
       fy="169.30726"
       r="149.24791"
       gradientUnits="userSpaceOnUse" />
  </defs>
  <g
     transform="translate(-262.95092,-176.3363)"
     style="display:inline"
     id="preferences">
    <g
       id="g672">
      <path
         d="m 266.45092,185.33356 c -1.933,0 -3.5,1.56762 -3.5,3.50137 0,1.93376 1.567,3.50137 3.5,3.50137 1.93299,0 3.5,-1.56761 3.5,-3.50137 0,-1.93375 -1.56701,-3.50137 -3.5,-3.50137 z m -1.23438,1.86013 c 0.36719,0 0.73438,0.22309 0.73438,0.65646 -0.75,-0.16927 -1.5625,0.86683 -1.5,0 0.0312,-0.43337 0.39844,-0.65646 0.76562,-0.65646 z m 2.46875,0 c 0.36719,0 0.73438,0.22309 0.76563,0.65646 0.0625,0.86683 -0.75,-0.16927 -1.5,0 0,-0.43337 0.36719,-0.65646 0.73437,-0.65646 z m -3.73437,2.15704 c 1,0.65196 3.99353,0.65196 5.01562,0 l -0.0156,0.26581 c -0.0182,0.21488 -0.49999,1.68805 -2.49999,1.70376 -2,0.016 -2.50001,-1.39054 -2.50001,-1.65685 v -0.31272 z"
         id="path5785"
         style="display:inline;fill:url(#linearGradient8154);fill-opacity:1;stroke:none;stroke-width:1.00019515"
         inkscape:connector-curvature="0" />
      <path
         d="m 275.95092,186.33396 c -1.65685,0 -3,1.34362 -3,3.00117 0,1.65754 1.34315,3.00117 3,3.00117 1.65685,0 3,-1.34363 3,-3.00117 0,-1.65755 -1.34315,-3.00117 -3,-3.00117 z m -2.47768,1.72837 c 1.67681,-0.016 3.41642,0 4.95536,0 0,0.70407 -0.53559,1.2728 -1.19197,1.2728 -0.54658,0 -0.99966,-0.39896 -1.13839,-0.93787 h -0.29464 c -0.13873,0.53901 -0.59181,0.93787 -1.13839,0.93787 -0.65638,0 -1.19197,-0.56883 -1.19197,-1.2728 z m 0.33482,1.72837 c 0.30656,0.46068 0.95796,0.83063 2.14286,0.83063 1.05097,0 1.80464,-0.32173 2.14286,-0.83063 v 0.21439 c 0,0.29191 -0.3591,1.0316 -2.14286,1.0316 -1.66322,0 -2.14286,-0.80331 -2.14286,-1.0316 z"
         id="path4894"
         style="display:inline;opacity:0.4;fill:url(#linearGradient8160);fill-opacity:1;stroke:none;stroke-width:1.00019515"
         inkscape:connector-curvature="0" />
      <path
         d="m 266.01974,177.26792 c -0.70807,0 -1.36187,0.24609 -1.875,0.65645 -0.48593,-0.19027 -0.89719,-0.40695 -1.15179,-0.62974 l -0.0402,0.2546 c -0.0143,0.11624 0.0443,0.64875 0.49554,1.17916 -0.27074,0.45087 -0.42857,0.97638 -0.42857,1.5407 0,1.65755 1.34315,3.00117 3,3.00117 1.65685,0 3,-1.34362 3,-3.00117 0,-0.55332 -0.15409,-1.06882 -0.41518,-1.51399 0.43329,-0.52231 0.50964,-1.0245 0.49554,-1.13875 l -0.0402,-0.2546 c -0.24801,0.21689 -0.64228,0.41627 -1.11161,0.60284 -0.003,-0.01 -0.011,0 -0.0134,0 -0.52075,-0.43527 -1.1837,-0.69667 -1.91524,-0.69667 z m -0.85714,1.71497 c 0.23928,0 0.44196,0.20268 0.44196,0.44207 v 0.41536 c 0,0.2394 -0.20268,0.42877 -0.44196,0.42877 -0.23929,0 -0.42857,-0.18937 -0.42857,-0.42877 v -0.41536 c 0,-0.23939 0.18928,-0.44207 0.42857,-0.44207 z m 1.71428,0 c 0.23929,0 0.42857,0.20268 0.42857,0.44207 v 0.41536 c 0,0.2394 -0.18928,0.42877 -0.42857,0.42877 -0.23928,0 -0.42857,-0.18937 -0.42857,-0.42877 v -0.41536 c 0,-0.23939 0.18929,-0.44207 0.42857,-0.44207 z m 0.85715,2.13423 c -0.0125,0.14746 -0.39647,1.2877 -1.71429,1.2903 -1.19511,0.01 -1.71429,-1.09682 -1.71429,-1.2796 z"
         id="path5619-4"
         style="display:inline;opacity:0.5;fill:url(#linearGradient8148);fill-opacity:1;stroke:none;stroke-width:1.00019515"
         inkscape:connector-curvature="0" />
      <g
         style="fill:none;fill-rule:evenodd;stroke:none;stroke-width:1"
         transform="matrix(0.01803329,0,0,0.01781696,269.90319,176.41906)"
         id="icon_sticker">
        <g
           id="icon"
           transform="translate(15.483871)">
          <path
             style="fill:#000000"
             inkscape:connector-curvature="0"
             d="m 251.59253,2.6475107 c -6.97242,-3.53001427 -15.17915,-3.53001427 -22.15363,0 C 190.13081,22.536739 57.382617,89.705182 14.207911,111.54949 5.8166529,115.79596 0.51612903,124.47478 0.51612903,133.96822 c 0,48.99827 0,195.06529 0,244.06293 0,9.49407 5.30052387,18.17331 13.69178197,22.41915 43.174706,21.84556 175.922899,89.01442 215.230989,108.90344 6.97448,3.52835 15.18121,3.52835 22.15363,0 39.30809,-19.88902 172.05856,-87.05788 215.23264,-108.90344 8.39043,-4.24584 13.69096,-12.92508 13.69096,-22.41915 0,-48.99764 0,-195.06466 0,-244.06293 0,-9.49344 -5.30053,-18.17226 -13.69096,-22.41873 C 423.65109,89.705182 290.90062,22.536739 251.59253,2.6475107 Z"
             id="hexagon_outline" />
          <path
             style="fill:#ededed"
             inkscape:connector-curvature="0"
             d="M 232.83896,9.365242 17.607143,118.26765 c -2.926057,1.48075 -5.31074,3.73718 -6.966287,6.44794 -1.6669968,2.72952 -2.5955603,5.91993 -2.5955603,9.25263 v 244.06293 c 0,3.33304 0.9285726,6.52376 2.5956403,9.25344 1.655444,2.71065 4.039942,4.96691 6.966238,6.44757 L 232.83817,502.63561 c 4.83365,2.44531 10.52195,2.44578 15.35478,1.6e-4 L 463.42592,393.73215 c 2.92577,-1.48053 5.31013,-3.73685 6.9655,-6.44755 1.66697,-2.72969 2.59554,-5.92041 2.59554,-9.25345 V 133.96822 c 0,-3.3327 -0.92856,-6.52311 -2.59546,-9.25264 -1.65548,-2.71081 -4.04002,-4.96729 -6.96626,-6.44828 L 248.19332,9.3656736 C 243.35964,6.9184664 237.67229,6.9189374 232.83896,9.365242 Z"
             id="hexagon" />
          <g
             id="root"
             transform="translate(64,87)">
            <g
               style="opacity:0.89957682"
               id="frame_back">
              <use
                 height="100%"
                 width="100%"
                 y="0"
                 x="0"
                 style="fill:url(#linearGradient-1)"
                 xlink:href="#path-3"
                 id="use445" />
              <use
                 height="100%"
                 width="100%"
                 y="0"
                 x="0"
                 style="fill:url(#radialGradient513);fill-opacity:0.6"
                 xlink:href="#path-3"
                 id="use447" />
            </g>
            <g
               style="opacity:0.89704237;fill:#000000"
               id="pic/moon"
               transform="translate(289.07513,94)">
              <path
                 inkscape:connector-curvature="0"
                 d="M 0,17.768442 C 0,4.6596409 6.5505521,-2.5074178 14.95358,0.80355953 13.988605,3.477102 13.451172,6.7444138 13.451172,10.49921 c 0,14.008691 7.480782,29.498093 16.708795,34.596548 0.592985,0.327623 1.178755,0.604366 1.75579,0.8317 C 29.281764,53.227217 23.463332,56.096856 16.708795,52.36499 7.4807824,47.266535 0,31.777133 0,17.768442 Z"
                 id="moon" />
            </g>
            <g
               style="opacity:0.89957682"
               id="frame_mid">
              <use
                 height="100%"
                 width="100%"
                 y="0"
                 x="0"
                 style="fill:url(#linearGradient-4)"
                 xlink:href="#path-5"
                 id="use452" />
              <use
                 height="100%"
                 width="100%"
                 y="0"
                 x="0"
                 style="fill:url(#radialGradient515);fill-opacity:0.6"
                 xlink:href="#path-5"
                 id="use454" />
            </g>
            <path
               style="opacity:0.89704237;fill:#000000"
               inkscape:connector-curvature="0"
               d="m 229.28021,185.21651 c 5.07414,0 9.8475,2.40685 12.86451,6.48662 l 30.37141,41.06938 v 49.06156 c 0,6.58711 -2.61644,11.59614 -7.27568,13.9249 -4.65924,2.32896 -10.97749,1.78705 -17.56811,-1.50651 C 212.37724,276.60988 140.6546,240.73266 105.3595,223.09028 98.770741,219.79673 92.45167,214.02135 87.792635,207.03466 83.1336,200.04818 80.516129,192.42262 80.516129,185.83551 v -0.619 z"
               id="picture_mid" />
            <g
               style="opacity:0.89957682"
               id="frame_front">
              <use
                 height="100%"
                 width="100%"
                 y="0"
                 x="0"
                 style="fill:url(#linearGradient-6)"
                 xlink:href="#path-7"
                 id="use458" />
              <use
                 height="100%"
                 width="100%"
                 y="0"
                 x="0"
                 style="fill:url(#radialGradient517);fill-opacity:0.6"
                 xlink:href="#path-7"
                 id="use460" />
            </g>
            <path
               style="opacity:0.89704237;fill:#000000"
               inkscape:connector-curvature="0"
               d="M 25.359503,263.09028 C 18.770741,259.79673 12.45167,254.02135 7.7926349,247.03466 3.1335995,240.04818 0.51612903,232.42262 0.51612903,225.83551 L 0.51606692,189.45854 47.4199,185.75729 c 5.904384,-0.46595 11.58316,2.36788 14.760867,7.36598 L 144.56405,322.69919 C 106.86168,303.84689 54.063896,277.43827 25.359503,263.09028 Z"
               id="picture_front" />
          </g>
        </g>
      </g>
    </g>
  </g>
</svg>
